<?xml version="1.0" standalone="no"?>
<!DOCTYPE svg PUBLIC "-//W3C//DTD SVG 20010904//EN"
 "http://www.w3.org/TR/2001/REC-SVG-20010904/DTD/svg10.dtd">
<svg version="1.0" xmlns="http://www.w3.org/2000/svg"
 width="700.000000pt" height="700.000000pt" viewBox="0 0 700.000000 700.000000"
 preserveAspectRatio="xMidYMid meet">
<metadata>
Created by potrace 1.14, written by Peter Selinger 2001-2017
</metadata>
<g transform="translate(0.000000,700.000000) scale(0.100000,-0.100000)"
fill="#000000" stroke="none">
<path d="M2238 6984 c-3 -5 -22 -49 -42 -99 -137 -334 -366 -751 -654 -1187
-135 -205 -356 -532 -363 -538 -16 -14 -427 -643 -499 -765 -46 -77 -90 -151
-99 -165 -47 -75 -203 -378 -270 -525 -139 -306 -252 -655 -277 -860 -3 -22
-7 -46 -9 -53 -27 -81 -26 -563 0 -717 3 -16 10 -57 16 -90 24 -139 80 -333
139 -480 81 -203 234 -461 361 -609 10 -12 27 -32 39 -46 57 -67 169 -176 256
-250 67 -57 229 -170 243 -170 6 0 11 -3 11 -7 0 -5 10 -13 23 -19 12 -6 76
-38 142 -72 286 -144 641 -226 980 -226 90 0 236 9 317 20 127 17 402 87 483
123 11 5 45 19 75 31 141 56 375 192 504 293 118 93 278 251 371 367 228 283
401 654 469 1007 35 179 41 254 40 488 -1 188 -15 339 -44 455 -5 19 -11 47
-14 61 -7 42 -53 205 -85 304 -155 477 -432 984 -900 1650 -41 58 -351 505
-366 527 -419 618 -615 969 -770 1384 -60 160 -70 181 -77 168z m48 -715 c14
-41 32 -87 39 -104 159 -379 302 -617 779 -1298 70 -100 343 -511 373 -562
173 -292 268 -488 348 -717 37 -106 92 -306 101 -368 3 -19 7 -41 9 -48 25
-73 24 -412 -1 -577 -8 -53 -62 -265 -74 -290 -5 -11 -23 -55 -40 -99 -117
-300 -357 -593 -639 -780 -294 -196 -614 -288 -971 -280 -80 1 -160 5 -178 8
-18 3 -50 8 -70 11 -21 3 -49 8 -62 11 -14 3 -36 7 -50 10 -14 2 -77 21 -140
40 -136 43 -320 135 -445 224 -87 62 -275 240 -325 308 -14 19 -30 39 -35 45
-57 63 -235 389 -235 429 0 8 -4 18 -8 23 -12 13 -47 130 -71 235 -34 145 -45
246 -45 405 0 116 10 291 19 317 2 7 6 29 9 48 12 85 67 271 120 410 53 141
205 465 235 505 5 5 25 42 46 80 21 39 82 140 135 225 91 145 156 244 485 730
299 442 473 744 606 1057 28 65 46 98 51 89 4 -7 19 -46 34 -87z m1945 -3434
c1 -8 2 -18 3 -22 14 -55 17 -74 21 -103 2 -19 7 -60 11 -90 13 -95 7 -349
-10 -450 -22 -135 -23 -138 -52 -236 -82 -284 -234 -540 -452 -761 -51 -51
-61 -55 -34 -10 39 64 62 103 94 162 18 33 37 68 43 78 5 9 33 63 62 120 44
88 62 127 114 242 51 116 94 261 114 385 4 25 9 54 11 64 8 42 31 227 39 307
6 73 18 271 18 302 -1 28 16 39 18 12z"/>
</g>
</svg>
