<svg width="83" height="29" viewBox="0 0 83 29" fill="none" xmlns="http://www.w3.org/2000/svg">
<path d="M39.1651 4.06332L39.3882 5.29325L39.1651 4.06332ZM81.3903 13.2484C82.0462 13.0328 82.4031 12.3264 82.1875 11.6705L78.6745 0.983085C78.4589 0.327251 77.7525 -0.0296502 77.0967 0.185925C76.4408 0.401499 76.0839 1.10792 76.2995 1.76375L79.4222 11.2637L69.9222 14.3864C69.2664 14.6019 68.9095 15.3084 69.1251 15.9642C69.3406 16.62 70.0471 16.9769 70.7029 16.7613L81.3903 13.2484ZM1 28C1.98656 28.7676 1.98639 28.7678 1.98628 28.768C1.98632 28.7679 1.98626 28.768 1.98634 28.7679C1.9865 28.7677 1.9869 28.7672 1.98753 28.7664C1.98878 28.7648 1.99097 28.762 1.99409 28.758C2.00032 28.7501 2.01027 28.7374 2.0239 28.7203C2.05116 28.6859 2.09316 28.6334 2.14965 28.5637C2.26262 28.4244 2.4335 28.2165 2.66032 27.9489C3.11402 27.4135 3.79116 26.6392 4.67594 25.6949C6.4463 23.8054 9.04349 21.24 12.341 18.5475C18.9494 13.1518 28.2985 7.30481 39.3882 5.29325L38.942 2.83339C27.2795 4.94884 17.546 11.0702 10.7599 16.611C7.36018 19.3869 4.68215 22.0318 2.85158 23.9856C1.93591 24.9629 1.23116 25.7685 0.753097 26.3326C0.514034 26.6147 0.331563 26.8365 0.207651 26.9893C0.145693 27.0658 0.0983662 27.125 0.0659177 27.1658C0.0496931 27.1863 0.0371872 27.2021 0.0284306 27.2133C0.0240523 27.2188 0.0206112 27.2232 0.0181112 27.2264C0.0168611 27.228 0.0158464 27.2293 0.0150674 27.2303C0.0146781 27.2308 0.0142703 27.2313 0.0140758 27.2316C0.0137275 27.232 0.013438 27.2324 1 28ZM39.3882 5.29325C61.6659 1.25235 74.196 10.0237 80.4363 13.1765L81.5637 10.9452C75.4431 7.85286 62.169 -1.37971 38.942 2.83339L39.3882 5.29325Z" fill="#E0DDDD"/>
</svg>
