<svg width="28" height="25" viewBox="0 0 28 25" fill="none" xmlns="http://www.w3.org/2000/svg">
<path d="M14.4646 0.59082L5.89712 9.14754H0.996735V14.9122H2.19922L4.87452 23.8292L5.0852 24.52H23.844L24.0547 23.8292L26.73 14.9122H27.9325V9.14754H23.0321L14.4646 0.59082ZM14.4646 3.32328L20.2972 9.14754H8.63302L14.4646 3.32328ZM2.92072 11.0691H26.0085V12.9907H25.287L25.0763 13.6815L22.401 22.5985H6.52818L3.85289 13.6815L3.64221 12.9907H2.92072V11.0691ZM9.65465 13.9514V20.6769H11.5786V13.9514H9.65465ZM13.5026 13.9514V20.6769H15.4266V13.9514H13.5026ZM17.3506 13.9514V20.6769H19.2746V13.9514H17.3506Z" fill="#70c4f1"/>
</svg>
