<svg width="40" height="40" viewBox="0 0 40 40" fill="none" xmlns="http://www.w3.org/2000/svg">
<path d="M26.8 3.50011H13.2C7.5747 3.50011 3 8.20936 3 14.0001V36.7501C3 37.2142 3.17911 37.6594 3.49792 37.9876C3.81673 38.3157 4.24914 38.5001 4.7 38.5001H26.8C32.4253 38.5001 37 33.7909 37 28.0001V14.0001C37 8.20936 32.4253 3.50011 26.8 3.50011ZM34.5 28.5001C34.5 32.3606 30.5502 36.0001 26.8 36.0001H5.5V14.0001C5.5 10.1396 9.4498 6.00011 13.2 6.00011H26.8C30.5502 6.00011 34.5 10.1396 34.5 14.0001V28.5001Z" fill="#70C4F1"/>
<path d="M18.3566 25.5L13.5 19.5L12 21.2173L18.3566 29L29 15.9686L27.5 14.5L18.3566 25.5Z" fill="#70C4F1"/>
</svg>
