<svg width="17" height="17" viewBox="0 0 17 17" fill="none" xmlns="http://www.w3.org/2000/svg">
<path d="M8.92175 5.41473C8.62508 5.41473 8.33507 5.50004 8.0884 5.65987C7.84172 5.8197 7.64947 6.04687 7.53593 6.31265C7.4224 6.57843 7.3927 6.87089 7.45058 7.15305C7.50845 7.4352 7.65131 7.69438 7.86109 7.8978C8.07087 8.10122 8.33815 8.23975 8.62912 8.29588C8.92009 8.352 9.22169 8.32319 9.49578 8.2131C9.76987 8.10301 10.0041 7.91658 10.169 7.67738C10.3338 7.43818 10.4218 7.15696 10.4218 6.86928C10.4213 6.48364 10.2631 6.11393 9.98191 5.84125C9.70071 5.56856 9.31944 5.41517 8.92175 5.41473ZM8.92175 7.59655C8.77342 7.59655 8.62841 7.5539 8.50508 7.47398C8.38174 7.39407 8.28561 7.28049 8.22884 7.14759C8.17208 7.0147 8.15723 6.86847 8.18616 6.7274C8.2151 6.58632 8.28653 6.45673 8.39142 6.35502C8.49631 6.25331 8.62995 6.18404 8.77544 6.15598C8.92092 6.12792 9.07172 6.14232 9.20877 6.19737C9.34581 6.25241 9.46294 6.34563 9.54536 6.46523C9.62777 6.58483 9.67175 6.72544 9.67175 6.86928C9.67152 7.0621 9.59243 7.24695 9.45183 7.38329C9.31123 7.51963 9.12059 7.59633 8.92175 7.59655Z" fill="#444444"/>
<path d="M12.0359 3.28722C11.256 2.53121 10.2151 2.0821 9.11382 2.02659C8.01259 1.97107 6.92919 2.31308 6.07271 2.98661C5.21623 3.66014 4.64739 4.61743 4.47598 5.67374C4.30457 6.73004 4.54275 7.81048 5.14453 8.70651L8.24536 13.3226C8.31437 13.4253 8.40872 13.5097 8.51986 13.5681C8.63101 13.6265 8.75543 13.6571 8.88185 13.6571C9.00827 13.6571 9.13269 13.6265 9.24383 13.5681C9.35497 13.5097 9.44932 13.4253 9.51833 13.3226L12.6193 8.70651C13.1777 7.87531 13.4244 6.88324 13.3182 5.89659C13.212 4.90995 12.7593 3.98868 12.0359 3.28722ZM11.9316 8.27212L8.88186 12.812L5.83206 8.27212C4.89853 6.88245 5.09875 5.02273 6.30813 3.84994C6.64612 3.52219 7.04736 3.2622 7.48896 3.08483C7.93057 2.90745 8.40387 2.81615 8.88186 2.81615C9.35985 2.81615 9.83315 2.90745 10.2748 3.08483C10.7164 3.2622 11.1176 3.52219 11.4556 3.84994C12.665 5.02273 12.8652 6.88245 11.9316 8.27212Z" fill="#444444"/>
</svg>
