<svg width="146" height="56" viewBox="0 0 146 56" fill="none" xmlns="http://www.w3.org/2000/svg">
<path fill-rule="evenodd" clip-rule="evenodd" d="M65.5722 20.2095C65.5088 21.3867 65.5262 22.5717 65.7095 23.7728C65.8547 24.7246 66.1512 25.6222 66.5663 26.4342L69.4688 44.6094H64.1484L63.2344 38.5157H56.7422L55.8281 44.6094H51L56.3672 11.0001H64.1016L65.5722 20.2095ZM72.2452 29.928L72.2517 29.9703C73.9614 30.4712 76.0809 29.4017 77.1305 27.8835L77.099 27.6693C75.9714 29.0848 73.9718 30.1559 72.2452 29.928ZM76.6368 24.5258C75.6677 26.6716 73.7523 27.8546 71.9654 28.1123L71.817 27.1496C73.4353 27.015 75.4116 26.0695 76.5746 24.1023L76.6368 24.5258ZM76.1698 21.3487C75.1231 22.8521 73.7046 23.1088 72.3802 23.3485C71.9976 23.4178 71.6228 23.4856 71.2671 23.5816L69.3281 11.0001H74.6484L76.1698 21.3487ZM77.215 28.4586L78.6797 38.4219L82.7109 11.0001H87.5625L82.3828 44.6094H74.5078L72.3442 30.5705C73.2776 30.6318 74.241 30.4675 75.1868 30.0322C76.0028 29.6463 76.6806 29.1057 77.215 28.4586ZM62.5078 33.9454H57.4219L59.9766 16.9532L62.5078 33.9454ZM92.7891 11.0001L87.4219 44.6094H92.25L93.1641 38.5157H99.6562L100.57 44.6094H105.891L100.523 11.0001H92.7891ZM98.9297 33.9454H93.8438L96.3984 16.9532L98.9297 33.9454ZM108.305 11.0001V44.6094H113.062V20.2813L119.625 44.6094H125.062V11.0001H120.352V31.1329L114.914 11.0001H108.305ZM132.82 11.0001L127.453 44.6094H132.281L133.195 38.5157H139.688L140.602 44.6094H145.922L140.555 11.0001H132.82ZM138.961 33.9454H133.875L136.43 16.9532L138.961 33.9454Z" fill="#70C4F1"/>
<path d="M29.5133 47.0965C30.8248 44.8908 31.981 42.8105 32.8234 40.3652C33.4508 37.8599 33.6114 35.4751 33.7455 32.9175C35.0765 38.1231 33.5053 43.4886 29.5133 47.0965ZM17.9559 46.8695C7.96751 46.8313 2.17205 37.006 5.10081 27.9073C7.82482 19.4431 14.8032 13.2543 17.9552 5.00811C18.0609 5.28317 18.2198 5.56718 18.2797 5.85448C21.3783 14.4084 29.1734 20.5073 31.2784 29.5908C33.3041 38.3348 27.0345 46.8181 17.9559 46.8695ZM35.497 32.3936C32.7233 20.4247 22.4516 12.3872 18.3687 1.11506C18.2892 0.736725 18.0801 0.362717 17.9411 5.34058e-05C13.7872 10.866 4.59212 19.022 1.00195 30.1754C-2.85746 42.1648 4.77998 55.1121 17.9419 55.1627C29.9052 55.095 38.1667 43.9159 35.497 32.3936Z" fill="#70C4F1"/>
</svg>
