<svg width="40" height="40" viewBox="0 0 40 40" fill="none" xmlns="http://www.w3.org/2000/svg">
<path d="M11.2031 25.9305C11.2892 25.9305 11.3752 25.9224 11.4598 25.9062L18.4806 24.2436L33.34 9.38424C33.7965 8.92776 34.1586 8.38585 34.4056 7.78943C34.6526 7.19302 34.7798 6.55379 34.7798 5.90824C34.7798 5.26268 34.6526 4.62345 34.4056 4.02704C34.1585 3.43063 33.7964 2.88872 33.34 2.43225C32.8835 1.97578 32.3416 1.61368 31.7451 1.36664C31.1487 1.11961 30.5095 0.992459 29.8639 0.992462C29.2184 0.992466 28.5792 1.11962 27.9828 1.36667C27.3863 1.61371 26.8444 1.97581 26.388 2.43229L11.5286 17.2917L9.87749 24.2592L9.86616 24.3119C9.8284 24.5089 9.83459 24.7117 9.8843 24.906C9.93401 25.1003 10.026 25.2812 10.1537 25.4358C10.2814 25.5904 10.4417 25.715 10.6231 25.8005C10.8045 25.886 11.0026 25.9304 11.2031 25.9305ZM13.7976 18.5579L28.1562 4.19971C28.3806 3.97538 28.6469 3.79743 28.94 3.67602C29.2331 3.55462 29.5472 3.49213 29.8645 3.49213C30.1817 3.49213 30.4959 3.55462 30.789 3.67602C31.0821 3.79743 31.3484 3.97538 31.5727 4.19971C31.7971 4.42404 31.975 4.69036 32.0964 4.98346C32.2178 5.27656 32.2803 5.5907 32.2803 5.90795C32.2803 6.2252 32.2178 6.53934 32.0964 6.83244C31.975 7.12555 31.7971 7.39186 31.5727 7.61619L17.2142 21.9745L12.7366 23.0356L13.7976 18.5579Z" fill="#70C4F1"/>
<path d="M36.875 29.375H3.125C2.6279 29.3756 2.15132 29.5733 1.79981 29.9248C1.44831 30.2763 1.25058 30.7529 1.25 31.25V36.875C1.25058 37.3721 1.44831 37.8487 1.79981 38.2002C2.15132 38.5517 2.6279 38.7494 3.125 38.75H36.875C37.3721 38.7494 37.8487 38.5517 38.2002 38.2002C38.5517 37.8487 38.7494 37.3721 38.75 36.875V31.25C38.7494 30.7529 38.5517 30.2763 38.2002 29.9248C37.8487 29.5733 37.3721 29.3756 36.875 29.375ZM36.25 36.25H3.75V31.875H36.25V36.25Z" fill="#70C4F1"/>
</svg>
