<svg width="40" height="40" viewBox="0 0 40 40" fill="none" xmlns="http://www.w3.org/2000/svg">
<path d="M23.75 0V2.5C31.3312 2.5 37.5 8.66875 37.5 16.25H40C40 7.29 32.71 0 23.75 0ZM10.8125 3.7575C10.1575 3.7575 9.50123 3.97125 8.96748 4.40125L8.90623 4.45125L4.97498 8.50625L5.05873 8.4275C3.75873 9.5475 3.39873 11.3175 3.95748 12.805C5.01123 15.8425 7.69498 21.7162 12.9937 27.0062C18.3012 32.3212 24.2362 34.8912 27.1725 36.0375L27.2025 36.0475L27.2312 36.0575C27.9664 36.3005 28.7519 36.3491 29.5114 36.1983C30.2708 36.0476 30.9783 35.7028 31.565 35.1975L31.6025 35.1662L35.5075 31.26C36.545 30.2225 36.545 28.405 35.5075 27.3687L30.3862 22.2412C29.3462 21.2012 27.5287 21.2012 26.4887 22.2412L24.0087 24.7212C23.1212 24.2975 20.9362 23.1987 18.8587 21.2187C16.8112 19.2637 15.765 17.0062 15.3862 16.1325L17.8862 13.6325C18.9825 12.5362 19.045 10.6525 17.7812 9.645L17.895 9.75125L12.7175 4.45125L12.6587 4.40125C12.1349 3.98205 11.4834 3.75486 10.8125 3.7575ZM23.75 5V7.5C28.5737 7.5 32.5 11.425 32.5 16.25H35C35 10.0475 29.9537 5 23.75 5ZM10.815 6.25C10.905 6.25 10.9925 6.28375 11.0787 6.35L16.1625 11.555L16.2237 11.605C16.2087 11.5925 16.2712 11.7125 16.1187 11.865L12.4225 15.5625L12.7075 16.3175C12.7075 16.3175 14.1187 20.1525 17.1337 23.0287C20.0987 25.8562 23.755 27.4012 23.755 27.4012L24.5337 27.7337L28.2562 24.01C28.4675 23.8 28.4075 23.8 28.6187 24.01L33.74 29.1375C33.9525 29.35 33.9525 29.28 33.74 29.4937L29.9312 33.3025C29.3512 33.795 28.7525 33.9237 28.0312 33.685C25.205 32.58 19.6737 30.16 14.7612 25.24C9.81373 20.2987 7.24873 14.685 6.30873 11.965L6.30373 11.95L6.29623 11.9325C6.10748 11.4325 6.24623 10.7062 6.68998 10.3237L6.73123 10.2862L10.5487 6.35C10.624 6.28819 10.7176 6.25303 10.815 6.25ZM23.75 10V12.5C25.8175 12.5 27.5 14.1825 27.5 16.25H30C30 12.8037 27.1962 10 23.75 10Z" fill="#70C4F1"/>
</svg>
