<svg width="22" height="25" viewBox="0 0 22 25" fill="none" xmlns="http://www.w3.org/2000/svg">
<path d="M10.9092 0.45874C6.70376 0.45874 3.27285 3.88965 3.27285 8.0951C3.27285 10.7242 4.61467 13.0587 6.64812 14.4366C2.75685 16.1056 0.00012207 19.9675 0.00012207 24.4587H2.18194C2.18194 19.626 6.07649 15.7315 10.9092 15.7315C15.7419 15.7315 19.6365 19.626 19.6365 24.4587H21.8183C21.8183 19.9675 19.0616 16.1067 15.1703 14.4355C16.2081 13.7349 17.0585 12.7906 17.6469 11.6853C18.2353 10.58 18.5439 9.34728 18.5456 8.0951C18.5456 3.88965 15.1147 0.45874 10.9092 0.45874ZM10.9092 2.64056C13.9343 2.64056 16.3638 5.07001 16.3638 8.0951C16.3638 11.1202 13.9343 13.5497 10.9092 13.5497C7.88412 13.5497 5.45467 11.1202 5.45467 8.0951C5.45467 5.07001 7.88412 2.64056 10.9092 2.64056Z" fill="#70c4f1"/>
</svg>
