<svg width="26" height="25" viewBox="0 0 26 25" fill="none" xmlns="http://www.w3.org/2000/svg">
<path d="M24.07 0.996012C23.749 1.01937 23.4339 1.09468 23.137 1.21901H23.133C22.848 1.33201 21.493 1.90201 19.433 2.76601L12.051 5.87501C6.754 8.10501 1.547 10.301 1.547 10.301L1.609 10.277C1.609 10.277 1.25 10.395 0.874997 10.652C0.643324 10.7994 0.44397 10.9923 0.288997 11.219C0.104997 11.489 -0.0430034 11.902 0.0119966 12.329C0.101997 13.051 0.569996 13.484 0.905996 13.723C1.246 13.965 1.57 14.078 1.57 14.078H1.578L6.461 15.723C6.68 16.426 7.949 20.598 8.254 21.559C8.434 22.133 8.609 22.492 8.828 22.766C8.934 22.906 9.058 23.023 9.207 23.117C9.28446 23.1621 9.36705 23.1977 9.453 23.223L9.403 23.211C9.418 23.215 9.43 23.227 9.441 23.231C9.481 23.242 9.508 23.246 9.559 23.254C10.332 23.488 10.953 23.008 10.953 23.008L10.988 22.98L13.871 20.355L18.703 24.062L18.813 24.109C19.82 24.551 20.84 24.305 21.379 23.871C21.922 23.434 22.133 22.875 22.133 22.875L22.168 22.785L25.902 3.65601C26.008 3.18401 26.035 2.74201 25.918 2.31301C25.7973 1.87884 25.5188 1.50542 25.137 1.26601C24.8164 1.07113 24.4447 0.977061 24.07 0.996012ZM23.969 3.04601C23.965 3.10901 23.977 3.10201 23.949 3.22301V3.23401L20.25 22.164C20.234 22.191 20.207 22.25 20.133 22.309C20.055 22.371 19.993 22.41 19.668 22.281L13.758 17.75L10.188 21.004L10.938 16.214L20.594 7.21401C20.992 6.84401 20.859 6.76601 20.859 6.76601C20.887 6.31201 20.258 6.63301 20.258 6.63301L8.082 14.176L8.078 14.156L2.242 12.191V12.187L2.227 12.184C2.23723 12.1806 2.24725 12.1766 2.257 12.172L2.289 12.156L2.32 12.145C2.32 12.145 7.531 9.94901 12.828 7.71901C15.48 6.60201 18.152 5.47701 20.207 4.60901C22.262 3.74601 23.781 3.11301 23.867 3.07901C23.949 3.04701 23.91 3.04701 23.969 3.04701V3.04601Z" fill="#E0DDDD"/>
</svg>
