<svg width="9" height="10" viewBox="0 0 9 10" fill="none" xmlns="http://www.w3.org/2000/svg">
<path d="M3.625 0.323425C3.42887 0.323425 3.22788 0.390979 3.08575 0.530124C2.944 0.668534 2.875 0.86532 2.875 1.0577V1.42484H0.625V2.15911H1V8.03331C1 8.63725 1.50813 9.13472 2.125 9.13472H6.625C7.24187 9.13472 7.75 8.63725 7.75 8.03331V2.15911H8.125V1.42484H5.875V1.0577C5.875 0.865687 5.806 0.668901 5.66388 0.529756C5.5225 0.390978 5.32113 0.323425 5.125 0.323425H3.625ZM3.625 1.0577H5.125V1.42484H3.625V1.0577ZM1.75 2.15911H7V8.03331C7 8.23707 6.83313 8.40044 6.625 8.40044H2.125C1.91687 8.40044 1.75 8.23707 1.75 8.03331V2.15911ZM2.5 3.26052V7.29903H3.25V3.26052H2.5ZM4 3.26052V7.29903H4.75V3.26052H4ZM5.5 3.26052V7.29903H6.25V3.26052H5.5Z" fill="#A9A9A9"/>
</svg>
