<svg width="25" height="26" viewBox="0 0 25 26" fill="none" xmlns="http://www.w3.org/2000/svg">
<path d="M12.7 0C10.8 0 6.09998 0.2 3.59998 2.6C1.79998 4.3 1.09998 6.9 0.999981 10C0.799981 14.9 1.89998 18 3.69998 19.6C4.09998 19.9 5.09998 20.7 6.99998 21.3V23.8C6.99998 23.8 6.99998 24.8 7.59998 25C7.69998 25 7.79998 25.1 7.89998 25.1C8.49998 25.1 8.99998 24.4 9.69998 23.7C10.3 23 10.8 22.5 11.1 22H13.3C15.2 22 19.9 21.8 22.4 19.4C24.2 17.6 24.9 15 24.9 11.7C25 11.2 25 10.6 25 10C24.9 6.3 23.8 3.8 22.3 2.4C21.7 1.9 19.1 0 13.5 0H12.7ZM12.5 1.9H13.4C18.7 1.9 20.7 3.6 20.9 3.8C22.1 4.8 22.8 7 22.9 9.9V10.3C23 10.9 23 11.4 23 11.7C22.9 14.7 22.3 16.7 21.1 18C19 19.9 14.6 20 13.4 20H11.5L9.89998 21.8L8.89998 22.9L8.69998 23.2C8.49998 23.4 8.19998 23.8 7.99998 23.9V19.4C5.99998 18.9 5.19998 18.2 4.99998 18C3.59998 16.8 2.79998 13.9 2.99998 10V9C3.19998 6.6 3.79998 5 4.79998 3.9C6.89998 2 11.3 1.9 12.5 1.9ZM12.4 4.1C11.9 4.1 11.9 4.8 12.4 4.8C16.1 4.8 19.3 7.3 19.3 12C19.3 12.5 20 12.5 20 12C20 6.9 16.6 4 12.4 4.1ZM8.43698 5.025C8.2104 4.99785 7.98218 5.06029 7.80098 5.199C6.80098 5.699 5.79998 6.701 6.09998 7.801C6.09998 7.801 6.29998 8.7 7.39998 10.6C7.99998 11.5 8.49998 12.3 8.99998 12.9C9.49998 13.6 10.3 14.4 11.1 15C12.7 16.3 15.2 17.6 16.3 17.9C17.3 18.2 18.4 17.2 18.9 16.2C19.1 15.8 19 15.3 18.6 15C18 14.4 17 13.7 16.3 13.3C15.8 13 15.2 13.2 15 13.5L14.5 14.1C14.3 14.4 13.8 14.4 13.8 14.4C10.5 13.5 9.59998 10.1 9.59998 10.1C9.59998 10.1 9.59998 9.7 9.89998 9.4L10.5 8.9C10.8 8.7 11 8.1 10.7 7.6C10.5 7.3 10.2 6.7 9.89998 6.4C9.59998 6 8.99998 5.3 8.99998 5.3C8.84826 5.14807 8.65008 5.05127 8.43698 5.025ZM13.1 6.1C12.6 6 12.5 6.8 13 6.8C15.8 7 17.4 8.9 17.3 11.3C17.2 11.8 18 11.8 18 11.3C18.1 8.5 16.3 6.2 13.1 6.1ZM13.4 8C12.9 7.9 12.9 8.7 13.4 8.7C14.6 8.7 15.2 9.4 15.2 10.6C15.3 11.1 16 11.1 16 10.6C15.9 9 15 8 13.4 8Z" fill="#70c4f1"/>
</svg>
