<svg width="46" height="46" viewBox="0 0 46 46" fill="none" xmlns="http://www.w3.org/2000/svg">
<path d="M0.5 22.2688V22.2052C1.06485 14.8221 3.70084 9.28483 8.28243 5.78425C12.8013 2.22001 17.6967 0.50154 23.0314 0.50154C28.6172 0.437893 33.8264 2.3473 38.4707 6.16613C43.1778 9.9213 45.5 15.5222 45.5 22.778V23.2235C45.5 30.5429 43.1778 36.0166 38.4707 39.7718C33.7636 43.5906 28.5544 45.5 22.9686 45.5H22.7176C17.2573 45.4364 12.2364 43.5269 7.59205 39.7081C2.9477 35.9529 0.562762 30.1611 0.5 22.2688ZM21.6506 12.2762V2.22001H20.1444C19.8305 2.60189 19.5795 3.04742 19.3285 3.4293C19.0774 3.81119 18.8264 4.19307 18.5753 4.6386C18.3243 5.02048 18.0105 5.52966 17.8222 5.91154C17.5711 6.29342 17.3828 6.6753 17.1946 7.12083C16.818 7.7573 16.5042 8.39377 16.2531 8.9666C15.9393 9.53942 15.6883 10.1122 15.5 10.6214C15.8766 10.876 16.3159 11.1942 16.818 11.3852C17.3828 11.5761 17.9477 11.7671 18.5126 11.8944C19.1402 12.0217 19.705 12.0853 20.2071 12.1489C20.772 12.2126 21.2741 12.2762 21.6506 12.2762ZM24.2866 2.22001V12.2126C24.6004 12.2126 24.977 12.2762 25.3536 12.2126C25.7301 12.2126 26.1695 12.1489 26.546 12.0853C27.2364 11.958 28.0523 11.7671 28.6799 11.5761C29.3703 11.3215 29.9979 11.0033 30.4372 10.6214C29.6841 8.77566 28.8682 7.31177 28.0523 5.91154C27.2364 4.5113 26.295 3.30201 25.2908 2.28366V2.22001H24.2866ZM17.5084 2.79283V2.72919C17.069 2.92013 16.6297 3.23836 16.1276 3.4293C15.6883 3.62025 15.1234 3.87483 14.6841 4.12942C13.8054 4.57495 12.9268 5.08413 12.0481 5.65695C11.2322 6.22977 10.4163 6.86624 9.72594 7.50272C9.97699 7.7573 10.2908 8.01189 10.5418 8.20283C10.7929 8.39377 11.1067 8.64836 11.4205 8.90295C11.6715 9.03024 11.9854 9.22119 12.2992 9.47577C12.613 9.66671 12.9895 9.9213 13.3661 10.1759C13.8682 9.03024 14.3703 7.82095 14.9979 6.73895C15.6255 5.5933 16.3159 4.5113 17.0063 3.5566C17.069 3.4293 17.1318 3.30201 17.2573 3.17472C17.3201 3.11107 17.3828 2.92013 17.5084 2.79283ZM36.7134 7.50272V7.43907C35.1444 6.22977 33.7636 5.21142 32.3828 4.57495C31.0021 3.93848 29.6213 3.30201 28.3661 2.79283C29.3703 3.81119 30.249 5.08413 30.8138 6.29342C31.4414 7.56636 32.069 8.90295 32.5711 10.1759C32.8222 10.0486 33.136 9.9213 33.5126 9.66671C33.8264 9.47577 34.2657 9.28483 34.6423 9.09389C35.0188 8.8393 35.3326 8.58471 35.7092 8.33013C36.0858 8.01189 36.4623 7.7573 36.7134 7.50272ZM35.6464 21.696H42.864C42.864 19.3411 42.3619 17.1134 41.4205 14.8221C40.5418 12.5945 39.2866 10.7487 37.7176 9.15754V9.09389C37.4038 9.60307 36.9644 10.0486 36.5251 10.3668C36.023 10.6851 35.5837 10.9397 35.0816 11.1942C34.7678 11.3852 34.454 11.6398 34.1402 11.7671C33.8264 11.958 33.387 12.0853 33.0732 12.2762C33.3243 12.7854 33.5753 13.3582 33.8264 13.8674C34.0146 14.4402 34.3285 15.0767 34.454 15.6495C34.8305 16.6679 35.0816 17.7499 35.3326 18.8319C35.5209 19.7866 35.6464 20.8049 35.6464 21.696ZM12.9268 12.2762V12.2126C12.4247 11.958 11.8598 11.7671 11.4205 11.5125C10.9812 11.1942 10.5418 10.876 10.1653 10.6214C9.7887 10.4305 9.41213 10.1759 9.09833 9.9213C8.78452 9.66671 8.53347 9.41213 8.28243 9.15754C6.65063 10.7487 5.45816 12.5308 4.70502 14.6312C3.88912 16.7315 3.32427 19.0865 3.07322 21.6324H10.7929C10.7929 19.8502 11.0439 18.1318 11.4833 16.4133C11.8598 14.6312 12.4247 13.2946 12.9268 12.2762ZM21.6506 21.6324V14.3129C21.1485 14.3766 20.5209 14.3766 19.9561 14.3129C19.3285 14.2493 18.7008 14.0584 18.136 13.8674C17.6339 13.7401 17.0063 13.6128 16.5042 13.4219C15.9393 13.2946 15.3745 13.04 14.9351 12.7854C14.5586 13.4219 14.2448 14.1857 13.9937 15.0131C13.6799 15.7768 13.4916 16.6042 13.3033 17.368C13.1778 18.1318 13.1151 18.9592 13.0523 19.6593C12.9895 20.3594 12.9268 21.0595 12.9268 21.6324H21.6506ZM24.2866 14.4402V21.6324H33.5753C33.5753 21.2505 33.5753 20.8049 33.5126 20.2958C33.387 19.8502 33.3243 19.2774 33.2615 18.7682C33.0732 18.0045 32.8849 17.1771 32.6339 16.4133C32.3828 15.7132 32.1318 15.0131 31.818 14.4402C31.6925 14.122 31.5669 13.7401 31.4414 13.4855C31.2531 13.1673 31.0649 12.9764 30.9393 12.7854C30.249 13.2946 29.3075 13.6128 28.1778 13.8674C27.1109 14.122 25.8556 14.3766 24.7259 14.4402H24.2866ZM10.7929 23.7327H3.07322C3.07322 24.8147 3.26151 26.024 3.57531 27.4879C3.88912 29.0154 4.51674 30.4157 5.20711 31.9432C5.52092 32.7069 5.89749 33.4707 6.27406 34.2345C6.71339 34.9346 7.21548 35.6984 7.71757 36.3985C8.09414 36.1439 8.47071 35.9529 8.78452 35.762C9.16109 35.5711 9.60042 35.3165 9.97699 35.1255C10.4163 34.9346 10.8556 34.7436 11.3577 34.4891C11.7971 34.2981 12.3619 34.0435 12.9268 33.7889C12.4247 32.1978 11.8598 30.6702 11.4833 28.9518C11.0439 27.2969 10.7929 25.6421 10.7929 23.7964V23.7327ZM21.6506 31.1794V23.7327H12.9268C12.9268 24.2419 12.9895 25.0057 13.1151 25.7694C13.1778 26.5332 13.3661 27.3606 13.4916 28.188C13.7427 29.0791 13.931 29.9701 14.182 30.7339C14.4331 31.4977 14.6841 32.1341 14.9351 32.7069C16.0649 32.2614 17.1946 31.9432 17.9477 31.7522C18.7636 31.4977 19.5167 31.3067 20.2699 31.2431H20.9603C21.2113 31.1794 21.4623 31.1794 21.6506 31.1794ZM24.2866 23.7327V31.1158C24.7259 31.1794 25.228 31.2431 25.7301 31.3067C26.295 31.3704 26.9854 31.4977 27.5502 31.6249L28.4916 31.8159C28.8054 31.9432 29.182 32.0068 29.4958 32.0705C29.8724 32.1978 30.249 32.2614 30.6255 32.3887C30.9393 32.516 31.2531 32.5797 31.5042 32.7069C32.3201 30.6066 32.8222 28.8881 33.136 27.4242C33.4498 26.024 33.5753 24.8147 33.5753 23.7964V23.7327H24.2866ZM42.864 23.7964V23.7327H35.6464V24.1146C35.5837 25.3239 35.3954 26.7241 35.1444 28.188C34.8933 29.5882 34.3285 31.2431 33.5753 33.2798C34.5795 33.7889 35.5209 34.2981 36.2741 34.8073C37.0272 35.3165 37.7176 35.8893 38.2197 36.3985C39.2866 35.3165 40.228 33.8526 41.0439 31.9432C41.8598 30.0974 42.4247 28.188 42.7385 26.1513C42.8013 25.7694 42.8013 25.3875 42.864 25.0057V23.7964ZM21.6506 43.1451V33.2161C20.0816 33.4707 18.7636 33.7889 17.7594 34.0435C16.7552 34.2981 16.0021 34.5527 15.5 34.8073C15.8766 35.762 16.2531 36.5894 16.6297 37.3532C17.0063 38.0533 17.4456 38.8171 17.8222 39.4535C17.9477 39.7081 18.1987 39.9627 18.387 40.2809C18.5753 40.5355 18.7008 40.8538 18.8891 41.1084C19.0774 41.4266 19.2657 41.8085 19.454 42.1904C19.705 42.5086 19.8933 42.8905 20.1444 43.1451H21.6506ZM24.2866 43.1451H25.7301C26.295 42.6995 26.8598 42.0631 27.2992 41.3629C27.8013 40.6628 28.3661 39.8354 28.7427 39.1353C29.182 38.3079 29.6213 37.5441 29.9979 36.7804C30.3745 36.0166 30.6883 35.3165 30.9393 34.8073C30.249 34.5527 29.3075 34.2981 28.3661 34.0435C27.4247 33.7889 26.1067 33.5344 24.2866 33.2798V43.1451ZM36.7134 37.926V37.8624C36.5879 37.6714 36.3368 37.4168 36.1485 37.2259C35.9603 37.0349 35.6464 36.7804 35.3326 36.5894C35.0816 36.3985 34.7678 36.2075 34.3912 36.0166C34.0146 35.8256 33.5126 35.5711 33.0732 35.3165C32.8222 35.8256 32.3828 36.7167 31.7552 37.926C31.1904 39.1353 30.1862 40.5992 28.931 42.1904C30.5 41.9358 31.8808 41.3629 33.136 40.5992C34.5167 39.8991 35.7092 38.9444 36.7134 37.926ZM13.3661 35.8893V35.8256C12.9268 36.0802 12.2364 36.3985 11.546 36.7167C10.7929 37.0349 9.97699 37.4168 9.22385 37.926C9.66318 38.3079 10.1025 38.6898 10.4791 38.9444C10.8556 39.2626 11.295 39.5172 11.6715 39.7718C12.3619 40.2173 13.1778 40.6628 13.9937 41.0447C14.8096 41.4266 15.8138 41.8085 17.069 42.1904C16.6297 41.6812 16.3159 41.0447 16.0021 40.5355C15.6883 40.0264 15.3117 39.5172 14.9979 39.008C14.6841 38.4988 14.4331 37.926 14.182 37.4168C13.8682 36.9076 13.6172 36.3985 13.3661 35.8893Z" fill="#70C4F1"/>
</svg>
