<svg version="1.0" xmlns="http://www.w3.org/2000/svg" width="933.333" height="933.333" viewBox="0 0 700 700"><path d="M223.8 1.6c-.3.5-2.2 4.9-4.2 9.9-13.7 33.4-36.6 75.1-65.4 118.7-13.5 20.5-35.6 53.2-36.3 53.8-1.6 1.4-42.7 64.3-49.9 76.5-4.6 7.7-9 15.1-9.9 16.5-4.7 7.5-20.3 37.8-27 52.5-13.9 30.6-25.2 65.5-27.7 86-.3 2.2-.7 4.6-.9 5.3-2.7 8.1-2.6 56.3 0 71.7.3 1.6 1 5.7 1.6 9 2.4 13.9 8 33.3 13.9 48 8.1 20.3 23.4 46.1 36.1 60.9 1 1.2 2.7 3.2 3.9 4.6 5.7 6.7 16.9 17.6 25.6 25 6.7 5.7 22.9 17 24.3 17 .6 0 1.1.3 1.1.7 0 .5 1 1.3 2.3 1.9 1.2.6 7.6 3.8 14.2 7.2 28.6 14.4 64.1 22.6 98 22.6 9 0 23.6-.9 31.7-2 12.7-1.7 40.2-8.7 48.3-12.3 1.1-.5 4.5-1.9 7.5-3.1 14.1-5.6 37.5-19.2 50.4-29.3 11.8-9.3 27.8-25.1 37.1-36.7 22.8-28.3 40.1-65.4 46.9-100.7 3.5-17.9 4.1-25.4 4-48.8-.1-18.8-1.5-33.9-4.4-45.5-.5-1.9-1.1-4.7-1.4-6.1-.7-4.2-5.3-20.5-8.5-30.4-15.5-47.7-43.2-98.4-90-165-4.1-5.8-35.1-50.5-36.6-52.7-41.9-61.8-61.5-96.9-77-138.4-6-16-7-18.1-7.7-16.8zm4.8 71.5c1.4 4.1 3.2 8.7 3.9 10.4 15.9 37.9 30.2 61.7 77.9 129.8 7 10 34.3 51.1 37.3 56.2 17.3 29.2 26.8 48.8 34.8 71.7 3.7 10.6 9.2 30.6 10.1 36.8.3 1.9.7 4.1.9 4.8 2.5 7.3 2.4 41.2-.1 57.7-.8 5.3-6.2 26.5-7.4 29-.5 1.1-2.3 5.5-4 9.9-11.7 30-35.7 59.3-63.9 78-29.4 19.6-61.4 28.8-97.1 28-8-.1-16-.5-17.8-.8-1.8-.3-5-.8-7-1.1-2.1-.3-4.9-.8-6.2-1.1-1.4-.3-3.6-.7-5-1-1.4-.2-7.7-2.1-14-4-13.6-4.3-32-13.5-44.5-22.4-8.7-6.2-27.5-24-32.5-30.8-1.4-1.9-3-3.9-3.5-4.5-5.7-6.3-23.5-38.9-23.5-42.9 0-.8-.4-1.8-.8-2.3-1.2-1.3-4.7-13-7.1-23.5-3.4-14.5-4.5-24.6-4.5-40.5 0-11.6 1-29.1 1.9-31.7.2-.7.6-2.9.9-4.8 1.2-8.5 6.7-27.1 12-41 5.3-14.1 20.5-46.5 23.5-50.5.5-.5 2.5-4.2 4.6-8 2.1-3.9 8.2-14 13.5-22.5 9.1-14.5 15.6-24.4 48.5-73 29.9-44.2 47.3-74.4 60.6-105.7 2.8-6.5 4.6-9.8 5.1-8.9.4.7 1.9 4.6 3.4 8.7zm194.5 343.4c.1.8.2 1.8.3 2.2 1.4 5.5 1.7 7.4 2.1 10.3.2 1.9.7 6 1.1 9 1.3 9.5.7 34.9-1 45-2.2 13.5-2.3 13.8-5.2 23.6-8.2 28.4-23.4 54-45.2 76.1-5.1 5.1-6.1 5.5-3.4 1 3.9-6.4 6.2-10.3 9.4-16.2 1.8-3.3 3.7-6.8 4.3-7.8.5-.9 3.3-6.3 6.2-12 4.4-8.8 6.2-12.7 11.4-24.2 5.1-11.6 9.4-26.1 11.4-38.5.4-2.5.9-5.4 1.1-6.4.8-4.2 3.1-22.7 3.9-30.7.6-7.3 1.8-27.1 1.8-30.2-.1-2.8 1.6-3.9 1.8-1.2z"/></svg>