<?xml version="1.0" encoding="utf-8"?><svg viewBox="0 0 146 211" xmlns="http://www.w3.org/2000/svg" xmlns:xlink="http://www.w3.org/1999/xlink"><style>:root>svg{display:none}:root>svg:target{display:block}</style><svg fill="none" viewBox="0 0 83 29" id="Arrow" xmlns="http://www.w3.org/2000/svg"><path d="M39.165 4.063l.223 1.23-.223-1.23zm42.225 9.185a1.25 1.25 0 00.797-1.577L78.674.982a1.25 1.25 0 00-2.375.78l3.123 9.5-9.5 3.123a1.25 1.25 0 10.78 2.375l10.688-3.513zM1 28l.986.768.002-.002.006-.008.03-.038.126-.156c.113-.14.284-.348.51-.615.454-.536 1.131-1.31 2.016-2.254a79.555 79.555 0 017.665-7.148c6.608-5.395 15.958-11.242 27.047-13.254l-.446-2.46C27.279 4.95 17.546 11.07 10.76 16.611a82.043 82.043 0 00-7.908 7.375 63.708 63.708 0 00-2.099 2.347 39.774 39.774 0 00-.687.833l-.038.047a1.743 1.743 0 00-.013.017v.002c-.001 0-.002 0 .985.768zM39.388 5.293c22.278-4.04 34.808 4.73 41.048 7.884l1.128-2.232C75.444 7.853 62.169-1.38 38.942 2.833l.446 2.46z" fill="#E0DDDD"/></svg><svg fill="none" viewBox="0 0 28 25" id="Cart" xmlns="http://www.w3.org/2000/svg"><path d="M14.465.59L5.897 9.149h-4.9v5.764h1.202l2.676 8.917.21.691h18.759l.21-.69 2.676-8.918h1.203V9.148h-4.9L14.464.59zm0 2.733l5.832 5.825H8.633l5.832-5.825zM2.92 11.07h23.088v1.922h-.722l-.21.69L22.4 22.6H6.528L3.853 13.68l-.21-.69H2.92v-1.922zm6.734 2.882v6.726h1.924V13.95H9.655zm3.848 0v6.726h1.924V13.95h-1.924zm3.848 0v6.726h1.924V13.95H17.35z" fill="#444"/></svg><svg fill="none" viewBox="0 0 28 25" id="CartBlue" xmlns="http://www.w3.org/2000/svg"><path d="M14.465.59L5.897 9.149h-4.9v5.764h1.202l2.676 8.917.21.691h18.759l.21-.69 2.676-8.918h1.203V9.148h-4.9L14.464.59zm0 2.733l5.832 5.825H8.633l5.832-5.825zM2.92 11.07h23.088v1.922h-.722l-.21.69L22.4 22.6H6.528L3.853 13.68l-.21-.69H2.92v-1.922zm6.734 2.882v6.726h1.924V13.95H9.655zm3.848 0v6.726h1.924V13.95h-1.924zm3.848 0v6.726h1.924V13.95H17.35z" fill="#70c4f1"/></svg><svg fill="none" viewBox="0 0 46 46" id="Clock" xmlns="http://www.w3.org/2000/svg"><path d="M23 .5C10.593.5.5 10.593.5 23S10.593 45.5 23 45.5 45.5 35.407 45.5 23 35.407.5 23 .5zm0 3.75A18.72 18.72 0 0141.75 23 18.72 18.72 0 0123 41.75 18.72 18.72 0 014.25 23 18.72 18.72 0 0123 4.25zM21.125 8v16.875H34.25v-3.75h-9.375V8h-3.75z" fill="#70C4F1"/></svg><svg fill="none" viewBox="0 0 24 24" id="Facebook" xmlns="http://www.w3.org/2000/svg"><path d="M12 0C5.384 0 0 5.384 0 12s5.384 12 12 12 12-5.384 12-12S18.616 0 12 0zm0 2c5.535 0 10 4.465 10 10a9.977 9.977 0 01-8.512 9.879v-6.963h2.848l.447-2.893h-3.295v-1.58c0-1.2.395-2.267 1.518-2.267h1.805V5.652c-.317-.043-.988-.136-2.256-.136-2.648 0-4.2 1.398-4.2 4.584v1.923H7.633v2.893h2.722v6.938A9.975 9.975 0 012 12C2 6.465 6.465 2 12 2z" fill="#E0DDDD"/></svg><svg fill="none" viewBox="0 0 24 24" id="FacebookBlue" xmlns="http://www.w3.org/2000/svg"><path d="M12 0C5.384 0 0 5.384 0 12s5.384 12 12 12 12-5.384 12-12S18.616 0 12 0zm0 2c5.535 0 10 4.465 10 10a9.977 9.977 0 01-8.512 9.879v-6.963h2.848l.447-2.893h-3.295v-1.58c0-1.2.395-2.267 1.518-2.267h1.805V5.652c-.317-.043-.988-.136-2.256-.136-2.648 0-4.2 1.398-4.2 4.584v1.923H7.633v2.893h2.722v6.938A9.975 9.975 0 012 12C2 6.465 6.465 2 12 2z" fill="#70c4f1"/></svg><svg fill="none" viewBox="0 0 24 24" id="FacebookWhite" xmlns="http://www.w3.org/2000/svg"><path d="M12 0C5.384 0 0 5.384 0 12s5.384 12 12 12 12-5.384 12-12S18.616 0 12 0zm0 2c5.535 0 10 4.465 10 10a9.977 9.977 0 01-8.512 9.879v-6.963h2.848l.447-2.893h-3.295v-1.58c0-1.2.395-2.267 1.518-2.267h1.805V5.652c-.317-.043-.988-.136-2.256-.136-2.648 0-4.2 1.398-4.2 4.584v1.923H7.633v2.893h2.722v6.938A9.975 9.975 0 012 12C2 6.465 6.465 2 12 2z" fill="#FFF"/></svg><svg fill="none" viewBox="0 0 8 211" id="GeneralArrow" xmlns="http://www.w3.org/2000/svg"><path d="M3.646 210.354a.5.5 0 00.708 0l3.182-3.182a.501.501 0 00-.708-.708L4 209.293l-2.828-2.829a.5.5 0 00-.708.708l3.182 3.182zM3.5 0v210h1V0h-1z" fill="#FEBC38"/></svg><svg fill="none" viewBox="0 0 17 17" id="LocationPin" xmlns="http://www.w3.org/2000/svg"><path d="M8.922 5.415c-.297 0-.587.085-.834.245-.246.16-.439.387-.552.653a1.414 1.414 0 00-.085.84c.057.282.2.541.41.745.21.203.477.342.768.398.291.056.593.027.867-.083s.508-.296.673-.536c.165-.239.253-.52.253-.808 0-.385-.159-.755-.44-1.028a1.526 1.526 0 00-1.06-.426zm0 2.182a.767.767 0 01-.417-.123.733.733 0 01-.276-.326.707.707 0 01.162-.793.772.772 0 01.817-.158.746.746 0 01.337.268.712.712 0 01-.093.918.763.763 0 01-.53.214z" fill="#444"/><path d="M12.036 3.287a4.526 4.526 0 00-2.922-1.26 4.553 4.553 0 00-3.041.96 4.298 4.298 0 00-1.597 2.687 4.22 4.22 0 00.669 3.033l3.1 4.616a.751.751 0 00.275.245.779.779 0 00.998-.245l3.101-4.616a4.223 4.223 0 00-.583-5.42zm-.104 4.985l-3.05 4.54-3.05-4.54a3.465 3.465 0 01.476-4.422 3.65 3.65 0 011.181-.765 3.739 3.739 0 012.786 0 3.65 3.65 0 011.18.765 3.465 3.465 0 01.477 4.422z" fill="#444"/></svg><svg fill="none" viewBox="0 0 146 56" id="LogoBlue" xmlns="http://www.w3.org/2000/svg"><path fill-rule="evenodd" clip-rule="evenodd" d="M65.572 20.21c-.063 1.177-.046 2.362.138 3.563.145.952.441 1.85.856 2.661L69.47 44.61h-5.32l-.915-6.093h-6.492l-.914 6.093H51L56.367 11h7.735l1.47 9.21zm6.673 9.718l.007.042c1.71.501 3.829-.568 4.879-2.086l-.032-.215c-1.128 1.416-3.127 2.487-4.854 2.259zm4.392-5.402c-.97 2.146-2.885 3.329-4.672 3.586l-.148-.962c1.618-.135 3.595-1.08 4.758-3.048l.062.424zm-.467-3.177c-1.047 1.503-2.465 1.76-3.79 2-.382.069-.757.137-1.113.233L69.328 11h5.32L76.17 21.35zm1.045 7.11l1.465 9.963L82.71 11h4.853l-5.18 33.61h-7.875l-2.164-14.04a5.832 5.832 0 004.871-2.111zm-14.707 5.486h-5.086l2.555-16.992 2.53 16.992zM92.789 11l-5.367 33.61h4.828l.914-6.094h6.492l.914 6.093h5.321L100.523 11h-7.734zm6.14 22.945h-5.085l2.554-16.992 2.532 16.992zM108.306 11v33.61h4.757V20.28l6.563 24.328h5.437V11h-4.71v20.133L114.914 11h-6.609zm24.515 0l-5.367 33.61h4.828l.914-6.094h6.493l.914 6.093h5.32L140.555 11h-7.735zm6.141 22.945h-5.086l2.555-16.992 2.531 16.992z" fill="#70C4F1"/><path d="M29.513 47.096c1.312-2.205 2.468-4.285 3.31-6.73.628-2.506.788-4.89.922-7.449 1.332 5.206-.24 10.572-4.232 14.18zm-11.557-.226C7.968 46.83 2.172 37.005 5.1 27.907c2.724-8.464 9.702-14.653 12.854-22.899.106.275.265.56.325.846 3.098 8.554 10.893 14.653 12.998 23.737 2.026 8.744-4.243 17.227-13.322 17.279zm17.541-14.476c-2.774-11.97-13.045-20.007-17.128-31.279C18.289.737 18.08.363 17.94 0 13.787 10.866 4.592 19.022 1.002 30.175c-3.86 11.99 3.778 24.937 16.94 24.988 11.963-.068 20.225-11.247 17.555-22.77z" fill="#70C4F1"/></svg><svg fill="none" viewBox="0 0 146 56" id="LogoWhite" xmlns="http://www.w3.org/2000/svg"><path fill-rule="evenodd" clip-rule="evenodd" d="M65.572 20.21c-.063 1.177-.046 2.362.138 3.563.145.952.441 1.85.856 2.661L69.47 44.61h-5.32l-.915-6.093h-6.492l-.914 6.093H51L56.367 11h7.735l1.47 9.21zm6.673 9.718l.007.042c1.71.501 3.829-.568 4.879-2.086l-.032-.215c-1.128 1.416-3.127 2.487-4.854 2.259zm4.392-5.402c-.97 2.146-2.885 3.329-4.672 3.586l-.148-.962c1.618-.135 3.595-1.08 4.758-3.048l.062.424zm-.467-3.177c-1.047 1.503-2.465 1.76-3.79 2-.382.069-.757.137-1.113.233L69.328 11h5.32L76.17 21.35zm1.045 7.11l1.465 9.963L82.71 11h4.853l-5.18 33.61h-7.875l-2.164-14.04a5.832 5.832 0 004.871-2.111zm-14.707 5.486h-5.086l2.555-16.992 2.53 16.992zM92.789 11l-5.367 33.61h4.828l.914-6.094h6.492l.914 6.093h5.321L100.523 11h-7.734zm6.14 22.945h-5.085l2.554-16.992 2.532 16.992zM108.306 11v33.61h4.757V20.28l6.563 24.328h5.437V11h-4.71v20.133L114.914 11h-6.609zm24.515 0l-5.367 33.61h4.828l.914-6.094h6.493l.914 6.093h5.32L140.555 11h-7.735zm6.141 22.945h-5.086l2.555-16.992 2.531 16.992z" fill="#FFF"/><path d="M29.513 47.096c1.312-2.205 2.468-4.285 3.31-6.73.628-2.506.788-4.89.922-7.449 1.332 5.206-.24 10.572-4.232 14.18zm-11.557-.226C7.968 46.83 2.172 37.005 5.1 27.907c2.724-8.464 9.702-14.653 12.854-22.899.106.275.265.56.325.846 3.098 8.554 10.893 14.653 12.998 23.737 2.026 8.744-4.243 17.227-13.322 17.279zm17.541-14.476c-2.774-11.97-13.045-20.007-17.128-31.279C18.289.737 18.08.363 17.94 0 13.787 10.866 4.592 19.022 1.002 30.175c-3.86 11.99 3.778 24.937 16.94 24.988 11.963-.068 20.225-11.247 17.555-22.77z" fill="#FFF"/></svg><svg fill="none" viewBox="0 0 22 25" id="Reg" xmlns="http://www.w3.org/2000/svg"><path d="M10.91.459c-4.206 0-7.637 3.43-7.637 7.636a7.664 7.664 0 003.375 6.342C2.757 16.106 0 19.967 0 24.459h2.182a8.71 8.71 0 018.727-8.727 8.71 8.71 0 018.728 8.727h2.181c0-4.491-2.756-8.352-6.648-10.024a7.663 7.663 0 003.376-6.34c0-4.205-3.431-7.636-7.637-7.636zm0 2.182a5.438 5.438 0 015.454 5.454 5.439 5.439 0 01-5.455 5.455 5.438 5.438 0 01-5.454-5.455 5.438 5.438 0 015.454-5.454z" fill="#444"/></svg><svg fill="none" viewBox="0 0 22 25" id="RegBlue" xmlns="http://www.w3.org/2000/svg"><path d="M10.91.459c-4.206 0-7.637 3.43-7.637 7.636a7.664 7.664 0 003.375 6.342C2.757 16.106 0 19.967 0 24.459h2.182a8.71 8.71 0 018.727-8.727 8.71 8.71 0 018.728 8.727h2.181c0-4.491-2.756-8.352-6.648-10.024a7.663 7.663 0 003.376-6.34c0-4.205-3.431-7.636-7.637-7.636zm0 2.182a5.438 5.438 0 015.454 5.454 5.439 5.439 0 01-5.455 5.455 5.438 5.438 0 01-5.454-5.455 5.438 5.438 0 015.454-5.454z" fill="#70c4f1"/></svg><svg fill="none" viewBox="0 0 26 25" id="Telegram" xmlns="http://www.w3.org/2000/svg"><path d="M24.07.996a2.974 2.974 0 00-.933.223h-.004c-.285.113-1.64.683-3.7 1.547l-7.382 3.109c-5.297 2.23-10.504 4.426-10.504 4.426l.062-.024s-.359.118-.734.375a2.03 2.03 0 00-.586.567c-.184.27-.332.683-.277 1.11.09.722.558 1.155.894 1.394.34.242.664.355.664.355h.008l4.883 1.645c.219.703 1.488 4.875 1.793 5.836.18.574.355.933.574 1.207.106.14.23.257.379.351.077.045.16.08.246.106l-.05-.012c.015.004.027.016.038.02.04.011.067.015.118.023.773.234 1.394-.246 1.394-.246l.035-.028 2.883-2.625 4.832 3.707.11.047c1.007.442 2.027.196 2.566-.238.543-.437.754-.996.754-.996l.035-.09 3.734-19.129c.106-.472.133-.914.016-1.343-.12-.434-.4-.808-.781-1.047a1.872 1.872 0 00-1.067-.27zm-.101 2.05c-.004.063.008.056-.02.177v.011l-3.699 18.93c-.016.027-.043.086-.117.145-.078.062-.14.101-.465-.028l-5.91-4.531-3.57 3.254.75-4.79 9.656-9c.398-.37.265-.448.265-.448.028-.454-.601-.133-.601-.133L8.082 14.176l-.004-.02-5.836-1.965v-.004l-.015-.003a.27.27 0 00.03-.012l.032-.016.031-.011s5.211-2.196 10.508-4.426c2.652-1.117 5.324-2.242 7.379-3.11a807.312 807.312 0 013.66-1.53c.082-.032.043-.032.102-.032v-.001z" fill="#E0DDDD"/></svg><svg fill="none" viewBox="0 0 26 25" id="TelegramBlue" xmlns="http://www.w3.org/2000/svg"><path d="M24.07.996a2.974 2.974 0 00-.933.223h-.004c-.285.113-1.64.683-3.7 1.547l-7.382 3.109c-5.297 2.23-10.504 4.426-10.504 4.426l.062-.024s-.359.118-.734.375a2.03 2.03 0 00-.586.567c-.184.27-.332.683-.277 1.11.09.722.558 1.155.894 1.394.34.242.664.355.664.355h.008l4.883 1.645c.219.703 1.488 4.875 1.793 5.836.18.574.355.933.574 1.207.106.14.23.257.379.351.077.045.16.08.246.106l-.05-.012c.015.004.027.016.038.02.04.011.067.015.118.023.773.234 1.394-.246 1.394-.246l.035-.028 2.883-2.625 4.832 3.707.11.047c1.007.442 2.027.196 2.566-.238.543-.437.754-.996.754-.996l.035-.09 3.734-19.129c.106-.472.133-.914.016-1.343-.12-.434-.4-.808-.781-1.047a1.872 1.872 0 00-1.067-.27zm-.101 2.05c-.004.063.008.056-.02.177v.011l-3.699 18.93c-.016.027-.043.086-.117.145-.078.062-.14.101-.465-.028l-5.91-4.531-3.57 3.254.75-4.79 9.656-9c.398-.37.265-.448.265-.448.028-.454-.601-.133-.601-.133L8.082 14.176l-.004-.02-5.836-1.965v-.004l-.015-.003a.27.27 0 00.03-.012l.032-.016.031-.011s5.211-2.196 10.508-4.426c2.652-1.117 5.324-2.242 7.379-3.11a807.312 807.312 0 013.66-1.53c.082-.032.043-.032.102-.032v-.001z" fill="#70c4f1"/></svg><svg fill="none" viewBox="0 0 26 25" id="TelegramWhite" xmlns="http://www.w3.org/2000/svg"><path d="M24.07.996a2.974 2.974 0 00-.933.223h-.004c-.285.113-1.64.683-3.7 1.547l-7.382 3.109c-5.297 2.23-10.504 4.426-10.504 4.426l.062-.024s-.359.118-.734.375a2.03 2.03 0 00-.586.567c-.184.27-.332.683-.277 1.11.09.722.558 1.155.894 1.394.34.242.664.355.664.355h.008l4.883 1.645c.219.703 1.488 4.875 1.793 5.836.18.574.355.933.574 1.207.106.14.23.257.379.351.077.045.16.08.246.106l-.05-.012c.015.004.027.016.038.02.04.011.067.015.118.023.773.234 1.394-.246 1.394-.246l.035-.028 2.883-2.625 4.832 3.707.11.047c1.007.442 2.027.196 2.566-.238.543-.437.754-.996.754-.996l.035-.09 3.734-19.129c.106-.472.133-.914.016-1.343-.12-.434-.4-.808-.781-1.047a1.872 1.872 0 00-1.067-.27zm-.101 2.05c-.004.063.008.056-.02.177v.011l-3.699 18.93c-.016.027-.043.086-.117.145-.078.062-.14.101-.465-.028l-5.91-4.531-3.57 3.254.75-4.79 9.656-9c.398-.37.265-.448.265-.448.028-.454-.601-.133-.601-.133L8.082 14.176l-.004-.02-5.836-1.965v-.004l-.015-.003a.27.27 0 00.03-.012l.032-.016.031-.011s5.211-2.196 10.508-4.426c2.652-1.117 5.324-2.242 7.379-3.11a807.312 807.312 0 013.66-1.53c.082-.032.043-.032.102-.032v-.001z" fill="#FFF"/></svg><svg fill="none" viewBox="0 0 25 26" id="Viber" xmlns="http://www.w3.org/2000/svg"><path d="M12.7 0c-1.9 0-6.6.2-9.1 2.6C1.8 4.3 1.1 6.9 1 10c-.2 4.9.9 8 2.7 9.6.4.3 1.4 1.1 3.3 1.7v2.5s0 1 .6 1.2c.1 0 .2.1.3.1.6 0 1.1-.7 1.8-1.4.6-.7 1.1-1.2 1.4-1.7h2.2c1.9 0 6.6-.2 9.1-2.6 1.8-1.8 2.5-4.4 2.5-7.7.1-.5.1-1.1.1-1.7-.1-3.7-1.2-6.2-2.7-7.6-.6-.5-3.2-2.4-8.8-2.4h-.8zm-.2 1.9h.9c5.3 0 7.3 1.7 7.5 1.9 1.2 1 1.9 3.2 2 6.1v.4c.1.6.1 1.1.1 1.4-.1 3-.7 5-1.9 6.3-2.1 1.9-6.5 2-7.7 2h-1.9l-1.6 1.8-1 1.1-.2.3c-.2.2-.5.6-.7.7v-4.5c-2-.5-2.8-1.2-3-1.4-1.4-1.2-2.2-4.1-2-8V9c.2-2.4.8-4 1.8-5.1 2.1-1.9 6.5-2 7.7-2zm-.1 2.2c-.5 0-.5.7 0 .7 3.7 0 6.9 2.5 6.9 7.2 0 .5.7.5.7 0 0-5.1-3.4-8-7.6-7.9zm-3.963.925a.875.875 0 00-.636.174c-1 .5-2.001 1.502-1.701 2.602 0 0 .2.899 1.3 2.799.6.9 1.1 1.7 1.6 2.3.5.7 1.3 1.5 2.1 2.1 1.6 1.3 4.1 2.6 5.2 2.9 1 .3 2.1-.7 2.6-1.7.2-.4.1-.9-.3-1.2-.6-.6-1.6-1.3-2.3-1.7-.5-.3-1.1-.1-1.3.2l-.5.6c-.2.3-.7.3-.7.3-3.3-.9-4.2-4.3-4.2-4.3s0-.4.3-.7l.6-.5c.3-.2.5-.8.2-1.3-.2-.3-.5-.9-.8-1.2C9.6 6 9 5.3 9 5.3a.962.962 0 00-.563-.275zM13.1 6.1c-.5-.1-.6.7-.1.7 2.8.2 4.4 2.1 4.3 4.5-.1.5.7.5.7 0 .1-2.8-1.7-5.1-4.9-5.2zm.3 1.9c-.5-.1-.5.7 0 .7 1.2 0 1.8.7 1.8 1.9.1.5.8.5.8 0C15.9 9 15 8 13.4 8z" fill="#E0DDDD"/></svg><svg fill="none" viewBox="0 0 25 26" id="ViberBlue" xmlns="http://www.w3.org/2000/svg"><path d="M12.7 0c-1.9 0-6.6.2-9.1 2.6C1.8 4.3 1.1 6.9 1 10c-.2 4.9.9 8 2.7 9.6.4.3 1.4 1.1 3.3 1.7v2.5s0 1 .6 1.2c.1 0 .2.1.3.1.6 0 1.1-.7 1.8-1.4.6-.7 1.1-1.2 1.4-1.7h2.2c1.9 0 6.6-.2 9.1-2.6 1.8-1.8 2.5-4.4 2.5-7.7.1-.5.1-1.1.1-1.7-.1-3.7-1.2-6.2-2.7-7.6-.6-.5-3.2-2.4-8.8-2.4h-.8zm-.2 1.9h.9c5.3 0 7.3 1.7 7.5 1.9 1.2 1 1.9 3.2 2 6.1v.4c.1.6.1 1.1.1 1.4-.1 3-.7 5-1.9 6.3-2.1 1.9-6.5 2-7.7 2h-1.9l-1.6 1.8-1 1.1-.2.3c-.2.2-.5.6-.7.7v-4.5c-2-.5-2.8-1.2-3-1.4-1.4-1.2-2.2-4.1-2-8V9c.2-2.4.8-4 1.8-5.1 2.1-1.9 6.5-2 7.7-2zm-.1 2.2c-.5 0-.5.7 0 .7 3.7 0 6.9 2.5 6.9 7.2 0 .5.7.5.7 0 0-5.1-3.4-8-7.6-7.9zm-3.963.925a.875.875 0 00-.636.174c-1 .5-2.001 1.502-1.701 2.602 0 0 .2.899 1.3 2.799.6.9 1.1 1.7 1.6 2.3.5.7 1.3 1.5 2.1 2.1 1.6 1.3 4.1 2.6 5.2 2.9 1 .3 2.1-.7 2.6-1.7.2-.4.1-.9-.3-1.2-.6-.6-1.6-1.3-2.3-1.7-.5-.3-1.1-.1-1.3.2l-.5.6c-.2.3-.7.3-.7.3-3.3-.9-4.2-4.3-4.2-4.3s0-.4.3-.7l.6-.5c.3-.2.5-.8.2-1.3-.2-.3-.5-.9-.8-1.2C9.6 6 9 5.3 9 5.3a.962.962 0 00-.563-.275zM13.1 6.1c-.5-.1-.6.7-.1.7 2.8.2 4.4 2.1 4.3 4.5-.1.5.7.5.7 0 .1-2.8-1.7-5.1-4.9-5.2zm.3 1.9c-.5-.1-.5.7 0 .7 1.2 0 1.8.7 1.8 1.9.1.5.8.5.8 0C15.9 9 15 8 13.4 8z" fill="#70c4f1"/></svg><svg fill="none" viewBox="0 0 25 26" id="ViberWhite" xmlns="http://www.w3.org/2000/svg"><path d="M12.7 0c-1.9 0-6.6.2-9.1 2.6C1.8 4.3 1.1 6.9 1 10c-.2 4.9.9 8 2.7 9.6.4.3 1.4 1.1 3.3 1.7v2.5s0 1 .6 1.2c.1 0 .2.1.3.1.6 0 1.1-.7 1.8-1.4.6-.7 1.1-1.2 1.4-1.7h2.2c1.9 0 6.6-.2 9.1-2.6 1.8-1.8 2.5-4.4 2.5-7.7.1-.5.1-1.1.1-1.7-.1-3.7-1.2-6.2-2.7-7.6-.6-.5-3.2-2.4-8.8-2.4h-.8zm-.2 1.9h.9c5.3 0 7.3 1.7 7.5 1.9 1.2 1 1.9 3.2 2 6.1v.4c.1.6.1 1.1.1 1.4-.1 3-.7 5-1.9 6.3-2.1 1.9-6.5 2-7.7 2h-1.9l-1.6 1.8-1 1.1-.2.3c-.2.2-.5.6-.7.7v-4.5c-2-.5-2.8-1.2-3-1.4-1.4-1.2-2.2-4.1-2-8V9c.2-2.4.8-4 1.8-5.1 2.1-1.9 6.5-2 7.7-2zm-.1 2.2c-.5 0-.5.7 0 .7 3.7 0 6.9 2.5 6.9 7.2 0 .5.7.5.7 0 0-5.1-3.4-8-7.6-7.9zm-3.963.925a.875.875 0 00-.636.174c-1 .5-2.001 1.502-1.701 2.602 0 0 .2.899 1.3 2.799.6.9 1.1 1.7 1.6 2.3.5.7 1.3 1.5 2.1 2.1 1.6 1.3 4.1 2.6 5.2 2.9 1 .3 2.1-.7 2.6-1.7.2-.4.1-.9-.3-1.2-.6-.6-1.6-1.3-2.3-1.7-.5-.3-1.1-.1-1.3.2l-.5.6c-.2.3-.7.3-.7.3-3.3-.9-4.2-4.3-4.2-4.3s0-.4.3-.7l.6-.5c.3-.2.5-.8.2-1.3-.2-.3-.5-.9-.8-1.2C9.6 6 9 5.3 9 5.3a.962.962 0 00-.563-.275zM13.1 6.1c-.5-.1-.6.7-.1.7 2.8.2 4.4 2.1 4.3 4.5-.1.5.7.5.7 0 .1-2.8-1.7-5.1-4.9-5.2zm.3 1.9c-.5-.1-.5.7 0 .7 1.2 0 1.8.7 1.8 1.9.1.5.8.5.8 0C15.9 9 15 8 13.4 8z" fill="#FFF"/></svg><svg fill="none" viewBox="0 0 46 46" id="World" xmlns="http://www.w3.org/2000/svg"><path d="M.5 22.269v-.064c.565-7.383 3.2-12.92 7.782-16.42C12.802 2.22 17.697.501 23.032.501 28.616.438 33.825 2.347 38.47 6.166c4.707 3.755 7.029 9.356 7.029 16.612v.446c0 7.319-2.322 12.793-7.03 16.548C33.765 43.59 28.555 45.5 22.97 45.5h-.251c-5.46-.064-10.482-1.973-15.126-5.792C2.948 35.953.562 30.161.5 22.268zm21.15-9.993V2.22h-1.506c-.313.382-.564.827-.816 1.21a20.1 20.1 0 00-.753 1.209 13.52 13.52 0 00-.753 1.273c-.25.381-.44.763-.627 1.209-.377.636-.69 1.273-.942 1.846a12.53 12.53 0 00-.753 1.654c.377.255.816.573 1.318.764.565.191 1.13.382 1.695.51.627.127 1.192.19 1.694.254.565.064 1.067.127 1.444.127zM24.288 2.22v9.993c.313 0 .69.063 1.067 0 .376 0 .816-.064 1.192-.128a20.97 20.97 0 002.134-.509c.69-.255 1.318-.573 1.757-.955-.753-1.845-1.569-3.31-2.385-4.71a18.234 18.234 0 00-2.761-3.627V2.22h-1.004zm-6.779.573v-.064c-.439.191-.878.51-1.38.7-.44.191-1.005.446-1.444.7-.879.446-1.757.955-2.636 1.528a22.943 22.943 0 00-2.322 1.846c.251.254.565.509.816.7.25.19.565.445.879.7.25.127.564.318.878.573.314.19.69.445 1.067.7.502-1.146 1.004-2.355 1.632-3.437a30.46 30.46 0 012.008-3.182c.063-.128.126-.255.251-.382.063-.064.126-.255.251-.382zm19.205 4.71v-.064c-1.569-1.21-2.95-2.228-4.33-2.864-1.38-.637-2.762-1.273-4.017-1.782a13.038 13.038 0 012.448 3.5c.627 1.273 1.255 2.61 1.757 3.883.251-.127.565-.255.942-.51.313-.19.753-.381 1.13-.572.376-.255.69-.51 1.066-.764.377-.318.753-.573 1.004-.827zm-1.067 14.193h7.218c0-2.355-.502-4.583-1.444-6.874a16.654 16.654 0 00-3.702-5.664v-.064c-.314.51-.754.955-1.193 1.273-.502.318-.941.573-1.443.827-.314.191-.628.446-.942.573-.314.191-.753.318-1.067.51.251.508.502 1.081.753 1.59.189.573.502 1.21.628 1.782.377 1.019.628 2.1.879 3.183.188.955.313 1.973.313 2.864zm-22.72-9.42v-.063c-.501-.255-1.066-.446-1.505-.7-.44-.319-.88-.637-1.256-.892a6.205 6.205 0 01-1.067-.7 9.705 9.705 0 01-.816-.763c-1.631 1.59-2.824 3.373-3.577 5.473-.816 2.1-1.38 4.456-1.632 7.001h7.72c0-1.782.25-3.5.69-5.219a17.126 17.126 0 011.444-4.137zm8.725 9.356v-7.32a7.53 7.53 0 01-1.695 0c-.628-.063-1.255-.254-1.82-.445-.502-.127-1.13-.254-1.632-.445a5.813 5.813 0 01-1.569-.637c-.376.637-.69 1.4-.941 2.228-.314.764-.502 1.591-.69 2.355-.126.764-.189 1.591-.252 2.291s-.125 1.4-.125 1.973h8.724zm2.636-7.192v7.192h9.288c0-.382 0-.827-.062-1.336-.126-.446-.189-1.019-.252-1.528-.188-.764-.376-1.59-.627-2.355-.251-.7-.502-1.4-.816-1.973-.126-.318-.251-.7-.377-.954-.188-.319-.376-.51-.502-.7-.69.509-1.631.827-2.761 1.081-1.067.255-2.322.51-3.452.573h-.44zm-13.494 9.293h-7.72c0 1.082.189 2.291.502 3.755.314 1.527.942 2.928 1.632 4.455.314.764.69 1.528 1.067 2.291.44.7.941 1.464 1.444 2.164.376-.254.753-.445 1.067-.636.376-.19.815-.446 1.192-.636.44-.191.879-.382 1.38-.637.44-.19 1.005-.445 1.57-.7-.502-1.591-1.067-3.119-1.444-4.837-.44-1.655-.69-3.31-.69-5.156v-.063zm10.858 7.446v-7.446h-8.724c0 .509.063 1.273.188 2.036.063.764.251 1.592.377 2.419.25.891.439 1.782.69 2.546.251.764.502 1.4.753 1.973 1.13-.446 2.26-.764 3.013-.955.816-.254 1.569-.445 2.322-.509h.69c.251-.064.502-.064.69-.064zm2.636-7.446v7.383c.439.063.941.127 1.443.19a18.2 18.2 0 011.82.319l.942.19c.313.128.69.192 1.004.256.376.127.753.19 1.13.318.313.127.627.19.878.318.816-2.1 1.318-3.819 1.632-5.283.314-1.4.44-2.61.44-3.628v-.063h-9.29zm18.577.063v-.063h-7.218v.382c-.062 1.209-.25 2.61-.502 4.073-.25 1.4-.816 3.055-1.569 5.092 1.005.509 1.946 1.018 2.7 1.527.752.51 1.443 1.082 1.945 1.591 1.067-1.082 2.008-2.545 2.824-4.455a22.769 22.769 0 001.695-5.792c.062-.382.062-.764.125-1.145v-1.21zm-21.213 19.35v-9.93a44.444 44.444 0 00-3.892.828c-1.004.254-1.757.509-2.259.763.377.955.753 1.782 1.13 2.546.376.7.816 1.464 1.192 2.1.126.255.377.51.565.828.188.255.314.573.502.827.188.319.377.7.565 1.082.251.319.44.7.69.955h1.507zm2.636 0h1.443c.565-.447 1.13-1.083 1.57-1.783.501-.7 1.066-1.528 1.443-2.228.439-.827.878-1.59 1.255-2.355.377-.763.69-1.464.941-1.973-.69-.254-1.631-.509-2.573-.764-.941-.254-2.26-.509-4.08-.763v9.865zm12.426-5.22v-.064c-.125-.19-.376-.445-.565-.636a4.611 4.611 0 00-.815-.637 6.18 6.18 0 00-.942-.572c-.376-.191-.878-.446-1.318-.7-.25.509-.69 1.4-1.318 2.609-.565 1.21-1.569 2.673-2.824 4.264 1.569-.254 2.95-.827 4.205-1.59 1.38-.7 2.573-1.656 3.577-2.674zm-23.347-2.037v-.063c-.44.254-1.13.572-1.82.89-.753.319-1.569.7-2.322 1.21.44.382.878.764 1.255 1.018.377.319.816.573 1.193.828.69.445 1.506.89 2.322 1.273.816.382 1.82.764 3.075 1.145-.44-.509-.753-1.145-1.067-1.654-.314-.51-.69-1.019-1.004-1.528-.314-.51-.565-1.082-.816-1.591-.314-.51-.565-1.019-.816-1.528z" fill="#70C4F1"/></svg><svg fill="none" viewBox="0 0 40 40" id="check" xmlns="http://www.w3.org/2000/svg"><path d="M26.8 3.5H13.2C7.575 3.5 3 8.21 3 14v22.75c0 .464.18.91.498 1.238.319.328.751.512 1.202.512h22.1C32.425 38.5 37 33.79 37 28V14c0-5.79-4.575-10.5-10.2-10.5zm7.7 25c0 3.86-3.95 7.5-7.7 7.5H5.5V14c0-3.86 3.95-8 7.7-8h13.6c3.75 0 7.7 4.14 7.7 8v14.5z" fill="#70C4F1"/><path d="M18.357 25.5l-4.857-6-1.5 1.717L18.357 29 29 15.969 27.5 14.5l-9.143 11z" fill="#70C4F1"/></svg><svg fill="none" viewBox="0 0 40 40" id="pencil" xmlns="http://www.w3.org/2000/svg"><path d="M11.203 25.93c.086 0 .172-.008.257-.024l7.02-1.662 14.86-14.86a4.915 4.915 0 10-6.952-6.952l-14.86 14.86-1.65 6.967-.012.053a1.362 1.362 0 001.337 1.618zm2.595-7.372L28.156 4.2a2.417 2.417 0 013.417 3.416L17.214 21.974l-4.477 1.062 1.06-4.478zM36.875 29.375H3.125A1.877 1.877 0 001.25 31.25v5.625a1.877 1.877 0 001.875 1.875h33.75a1.877 1.877 0 001.875-1.875V31.25a1.877 1.877 0 00-1.875-1.875zm-.625 6.875H3.75v-4.375h32.5v4.375z" fill="#70C4F1"/></svg><svg fill="none" viewBox="0 0 40 40" id="phone" xmlns="http://www.w3.org/2000/svg"><path d="M23.75 0v2.5c7.581 0 13.75 6.169 13.75 13.75H40C40 7.29 32.71 0 23.75 0zM10.812 3.757c-.654 0-1.31.214-1.845.644l-.06.05-3.932 4.055.084-.079c-1.3 1.12-1.66 2.89-1.102 4.378 1.054 3.037 3.738 8.911 9.037 14.201 5.307 5.315 11.242 7.885 14.178 9.032l.03.01.03.01a4.483 4.483 0 004.333-.86l.037-.032 3.905-3.906c1.038-1.038 1.038-2.855 0-3.891l-5.12-5.128c-1.04-1.04-2.858-1.04-3.898 0l-2.48 2.48c-.888-.424-3.073-1.522-5.15-3.502-2.048-1.955-3.094-4.213-3.473-5.087l2.5-2.5c1.097-1.096 1.159-2.98-.105-3.987l.114.106-5.178-5.3-.058-.05a2.936 2.936 0 00-1.847-.643zM23.75 5v2.5c4.824 0 8.75 3.925 8.75 8.75H35C35 10.047 29.954 5 23.75 5zM10.815 6.25a.43.43 0 01.264.1l5.084 5.205.06.05c-.014-.013.048.107-.104.26l-3.697 3.697.285.755s1.412 3.835 4.427 6.712c2.965 2.827 6.621 4.372 6.621 4.372l.779.333 3.722-3.724c.212-.21.151-.21.363 0l5.121 5.127c.212.213.212.143 0 .357l-3.809 3.809c-.58.492-1.178.62-1.9.382-2.826-1.105-8.357-3.525-13.27-8.445C9.814 20.299 7.25 14.685 6.31 11.965l-.005-.015-.008-.018c-.189-.5-.05-1.226.394-1.608l.041-.038L10.55 6.35a.441.441 0 01.266-.1zM23.75 10v2.5a3.755 3.755 0 013.75 3.75H30A6.257 6.257 0 0023.75 10z" fill="#70C4F1"/></svg><svg fill="none" viewBox="0 0 40 40" id="truck" xmlns="http://www.w3.org/2000/svg"><path d="M37.4 20.762l-3.75-8.75a1.25 1.25 0 00-1.15-.762h-3.75v-2.5A1.25 1.25 0 0027.5 7.5H3.75A1.25 1.25 0 002.5 8.75V30a1.25 1.25 0 001.25 1.25h2.675a5 5 0 009.65 0h7.85a5 5 0 009.65 0h2.675A1.25 1.25 0 0037.5 30v-8.75a1.25 1.25 0 00-.1-.488zm-8.65-7.012h2.925L34.35 20h-5.6v-6.25zM11.25 32.5a2.5 2.5 0 110-5 2.5 2.5 0 010 5zm12.675-3.75h-7.85a5 5 0 00-9.65 0H5V10h21.25v15.7a5 5 0 00-2.325 3.05zm4.825 3.75a2.5 2.5 0 110-5 2.5 2.5 0 010 5zM35 28.75h-1.425A5 5 0 0028.75 25v-2.5H35v6.25z" fill="#70C4F1"/></svg></svg>