<?xml version="1.0" encoding="utf-8"?><svg viewBox="0 0 146 56" xmlns="http://www.w3.org/2000/svg" xmlns:xlink="http://www.w3.org/1999/xlink"><style>:root>svg{display:none}:root>svg:target{display:block}</style><svg fill="none" viewBox="0 0 28 25" id="Cart" xmlns="http://www.w3.org/2000/svg"><path d="M14.465.59L5.897 9.149h-4.9v5.764h1.202l2.676 8.917.21.691h18.759l.21-.69 2.676-8.918h1.203V9.148h-4.9L14.464.59zm0 2.733l5.832 5.825H8.633l5.832-5.825zM2.92 11.07h23.088v1.922h-.722l-.21.69L22.4 22.6H6.528L3.853 13.68l-.21-.69H2.92v-1.922zm6.734 2.882v6.726h1.924V13.95H9.655zm3.848 0v6.726h1.924V13.95h-1.924zm3.848 0v6.726h1.924V13.95H17.35z" fill="#444"/></svg><svg fill="none" viewBox="0 0 28 25" id="CartBlue" xmlns="http://www.w3.org/2000/svg"><path d="M14.465.59L5.897 9.149h-4.9v5.764h1.202l2.676 8.917.21.691h18.759l.21-.69 2.676-8.918h1.203V9.148h-4.9L14.464.59zm0 2.733l5.832 5.825H8.633l5.832-5.825zM2.92 11.07h23.088v1.922h-.722l-.21.69L22.4 22.6H6.528L3.853 13.68l-.21-.69H2.92v-1.922zm6.734 2.882v6.726h1.924V13.95H9.655zm3.848 0v6.726h1.924V13.95h-1.924zm3.848 0v6.726h1.924V13.95H17.35z" fill="#70c4f1"/></svg><svg fill="none" viewBox="0 0 24 24" id="Facebook" xmlns="http://www.w3.org/2000/svg"><path d="M12 0C5.384 0 0 5.384 0 12s5.384 12 12 12 12-5.384 12-12S18.616 0 12 0zm0 2c5.535 0 10 4.465 10 10a9.977 9.977 0 01-8.512 9.879v-6.963h2.848l.447-2.893h-3.295v-1.58c0-1.2.395-2.267 1.518-2.267h1.805V5.652c-.317-.043-.988-.136-2.256-.136-2.648 0-4.2 1.398-4.2 4.584v1.923H7.633v2.893h2.722v6.938A9.975 9.975 0 012 12C2 6.465 6.465 2 12 2z" fill="#E0DDDD"/></svg><svg fill="none" viewBox="0 0 24 24" id="FacebookBlue" xmlns="http://www.w3.org/2000/svg"><path d="M12 0C5.384 0 0 5.384 0 12s5.384 12 12 12 12-5.384 12-12S18.616 0 12 0zm0 2c5.535 0 10 4.465 10 10a9.977 9.977 0 01-8.512 9.879v-6.963h2.848l.447-2.893h-3.295v-1.58c0-1.2.395-2.267 1.518-2.267h1.805V5.652c-.317-.043-.988-.136-2.256-.136-2.648 0-4.2 1.398-4.2 4.584v1.923H7.633v2.893h2.722v6.938A9.975 9.975 0 012 12C2 6.465 6.465 2 12 2z" fill="#70c4f1"/></svg><svg fill="none" viewBox="0 0 17 17" id="LocationPin" xmlns="http://www.w3.org/2000/svg"><path d="M8.922 5.415c-.297 0-.587.085-.834.245-.246.16-.439.387-.552.653a1.414 1.414 0 00-.085.84c.057.282.2.541.41.745.21.203.477.342.768.398.291.056.593.027.867-.083s.508-.296.673-.536c.165-.239.253-.52.253-.808 0-.385-.159-.755-.44-1.028a1.526 1.526 0 00-1.06-.426zm0 2.182a.767.767 0 01-.417-.123.733.733 0 01-.276-.326.707.707 0 01.162-.793.772.772 0 01.817-.158.746.746 0 01.337.268.712.712 0 01-.093.918.763.763 0 01-.53.214z" fill="#444"/><path d="M12.036 3.287a4.526 4.526 0 00-2.922-1.26 4.553 4.553 0 00-3.041.96 4.298 4.298 0 00-1.597 2.687 4.22 4.22 0 00.669 3.033l3.1 4.616a.751.751 0 00.275.245.779.779 0 00.998-.245l3.101-4.616a4.223 4.223 0 00-.583-5.42zm-.104 4.985l-3.05 4.54-3.05-4.54a3.465 3.465 0 01.476-4.422 3.65 3.65 0 011.181-.765 3.739 3.739 0 012.786 0 3.65 3.65 0 011.18.765 3.465 3.465 0 01.477 4.422z" fill="#444"/></svg><svg fill="none" viewBox="0 0 146 56" id="LogoBlue" xmlns="http://www.w3.org/2000/svg"><path fill-rule="evenodd" clip-rule="evenodd" d="M65.572 20.21c-.063 1.177-.046 2.362.138 3.563.145.952.441 1.85.856 2.661L69.47 44.61h-5.32l-.915-6.093h-6.492l-.914 6.093H51L56.367 11h7.735l1.47 9.21zm6.673 9.718l.007.042c1.71.501 3.829-.568 4.879-2.086l-.032-.215c-1.128 1.416-3.127 2.487-4.854 2.259zm4.392-5.402c-.97 2.146-2.885 3.329-4.672 3.586l-.148-.962c1.618-.135 3.595-1.08 4.758-3.048l.062.424zm-.467-3.177c-1.047 1.503-2.465 1.76-3.79 2-.382.069-.757.137-1.113.233L69.328 11h5.32L76.17 21.35zm1.045 7.11l1.465 9.963L82.71 11h4.853l-5.18 33.61h-7.875l-2.164-14.04a5.832 5.832 0 004.871-2.111zm-14.707 5.486h-5.086l2.555-16.992 2.53 16.992zM92.789 11l-5.367 33.61h4.828l.914-6.094h6.492l.914 6.093h5.321L100.523 11h-7.734zm6.14 22.945h-5.085l2.554-16.992 2.532 16.992zM108.306 11v33.61h4.757V20.28l6.563 24.328h5.437V11h-4.71v20.133L114.914 11h-6.609zm24.515 0l-5.367 33.61h4.828l.914-6.094h6.493l.914 6.093h5.32L140.555 11h-7.735zm6.141 22.945h-5.086l2.555-16.992 2.531 16.992z" fill="#70C4F1"/><path d="M29.513 47.096c1.312-2.205 2.468-4.285 3.31-6.73.628-2.506.788-4.89.922-7.449 1.332 5.206-.24 10.572-4.232 14.18zm-11.557-.226C7.968 46.83 2.172 37.005 5.1 27.907c2.724-8.464 9.702-14.653 12.854-22.899.106.275.265.56.325.846 3.098 8.554 10.893 14.653 12.998 23.737 2.026 8.744-4.243 17.227-13.322 17.279zm17.541-14.476c-2.774-11.97-13.045-20.007-17.128-31.279C18.289.737 18.08.363 17.94 0 13.787 10.866 4.592 19.022 1.002 30.175c-3.86 11.99 3.778 24.937 16.94 24.988 11.963-.068 20.225-11.247 17.555-22.77z" fill="#70C4F1"/></svg><svg fill="none" viewBox="0 0 146 56" id="LogoWhite" xmlns="http://www.w3.org/2000/svg"><path fill-rule="evenodd" clip-rule="evenodd" d="M65.572 20.21c-.063 1.177-.046 2.362.138 3.563.145.952.441 1.85.856 2.661L69.47 44.61h-5.32l-.915-6.093h-6.492l-.914 6.093H51L56.367 11h7.735l1.47 9.21zm6.673 9.718l.007.042c1.71.501 3.829-.568 4.879-2.086l-.032-.215c-1.128 1.416-3.127 2.487-4.854 2.259zm4.392-5.402c-.97 2.146-2.885 3.329-4.672 3.586l-.148-.962c1.618-.135 3.595-1.08 4.758-3.048l.062.424zm-.467-3.177c-1.047 1.503-2.465 1.76-3.79 2-.382.069-.757.137-1.113.233L69.328 11h5.32L76.17 21.35zm1.045 7.11l1.465 9.963L82.71 11h4.853l-5.18 33.61h-7.875l-2.164-14.04a5.832 5.832 0 004.871-2.111zm-14.707 5.486h-5.086l2.555-16.992 2.53 16.992zM92.789 11l-5.367 33.61h4.828l.914-6.094h6.492l.914 6.093h5.321L100.523 11h-7.734zm6.14 22.945h-5.085l2.554-16.992 2.532 16.992zM108.306 11v33.61h4.757V20.28l6.563 24.328h5.437V11h-4.71v20.133L114.914 11h-6.609zm24.515 0l-5.367 33.61h4.828l.914-6.094h6.493l.914 6.093h5.32L140.555 11h-7.735zm6.141 22.945h-5.086l2.555-16.992 2.531 16.992z" fill="#FFF"/><path d="M29.513 47.096c1.312-2.205 2.468-4.285 3.31-6.73.628-2.506.788-4.89.922-7.449 1.332 5.206-.24 10.572-4.232 14.18zm-11.557-.226C7.968 46.83 2.172 37.005 5.1 27.907c2.724-8.464 9.702-14.653 12.854-22.899.106.275.265.56.325.846 3.098 8.554 10.893 14.653 12.998 23.737 2.026 8.744-4.243 17.227-13.322 17.279zm17.541-14.476c-2.774-11.97-13.045-20.007-17.128-31.279C18.289.737 18.08.363 17.94 0 13.787 10.866 4.592 19.022 1.002 30.175c-3.86 11.99 3.778 24.937 16.94 24.988 11.963-.068 20.225-11.247 17.555-22.77z" fill="#FFF"/></svg><svg fill="none" viewBox="0 0 22 25" id="Reg" xmlns="http://www.w3.org/2000/svg"><path d="M10.91.459c-4.206 0-7.637 3.43-7.637 7.636a7.664 7.664 0 003.375 6.342C2.757 16.106 0 19.967 0 24.459h2.182a8.71 8.71 0 018.727-8.727 8.71 8.71 0 018.728 8.727h2.181c0-4.491-2.756-8.352-6.648-10.024a7.663 7.663 0 003.376-6.34c0-4.205-3.431-7.636-7.637-7.636zm0 2.182a5.438 5.438 0 015.454 5.454 5.439 5.439 0 01-5.455 5.455 5.438 5.438 0 01-5.454-5.455 5.438 5.438 0 015.454-5.454z" fill="#444"/></svg><svg fill="none" viewBox="0 0 22 25" id="RegBlue" xmlns="http://www.w3.org/2000/svg"><path d="M10.91.459c-4.206 0-7.637 3.43-7.637 7.636a7.664 7.664 0 003.375 6.342C2.757 16.106 0 19.967 0 24.459h2.182a8.71 8.71 0 018.727-8.727 8.71 8.71 0 018.728 8.727h2.181c0-4.491-2.756-8.352-6.648-10.024a7.663 7.663 0 003.376-6.34c0-4.205-3.431-7.636-7.637-7.636zm0 2.182a5.438 5.438 0 015.454 5.454 5.439 5.439 0 01-5.455 5.455 5.438 5.438 0 01-5.454-5.455 5.438 5.438 0 015.454-5.454z" fill="#70c4f1"/></svg><svg fill="none" viewBox="0 0 26 25" id="Telegram" xmlns="http://www.w3.org/2000/svg"><path d="M24.07.996a2.974 2.974 0 00-.933.223h-.004c-.285.113-1.64.683-3.7 1.547l-7.382 3.109c-5.297 2.23-10.504 4.426-10.504 4.426l.062-.024s-.359.118-.734.375a2.03 2.03 0 00-.586.567c-.184.27-.332.683-.277 1.11.09.722.558 1.155.894 1.394.34.242.664.355.664.355h.008l4.883 1.645c.219.703 1.488 4.875 1.793 5.836.18.574.355.933.574 1.207.106.14.23.257.379.351.077.045.16.08.246.106l-.05-.012c.015.004.027.016.038.02.04.011.067.015.118.023.773.234 1.394-.246 1.394-.246l.035-.028 2.883-2.625 4.832 3.707.11.047c1.007.442 2.027.196 2.566-.238.543-.437.754-.996.754-.996l.035-.09 3.734-19.129c.106-.472.133-.914.016-1.343-.12-.434-.4-.808-.781-1.047a1.872 1.872 0 00-1.067-.27zm-.101 2.05c-.004.063.008.056-.02.177v.011l-3.699 18.93c-.016.027-.043.086-.117.145-.078.062-.14.101-.465-.028l-5.91-4.531-3.57 3.254.75-4.79 9.656-9c.398-.37.265-.448.265-.448.028-.454-.601-.133-.601-.133L8.082 14.176l-.004-.02-5.836-1.965v-.004l-.015-.003a.27.27 0 00.03-.012l.032-.016.031-.011s5.211-2.196 10.508-4.426c2.652-1.117 5.324-2.242 7.379-3.11a807.312 807.312 0 013.66-1.53c.082-.032.043-.032.102-.032v-.001z" fill="#E0DDDD"/></svg><svg fill="none" viewBox="0 0 26 25" id="TelegramBlue" xmlns="http://www.w3.org/2000/svg"><path d="M24.07.996a2.974 2.974 0 00-.933.223h-.004c-.285.113-1.64.683-3.7 1.547l-7.382 3.109c-5.297 2.23-10.504 4.426-10.504 4.426l.062-.024s-.359.118-.734.375a2.03 2.03 0 00-.586.567c-.184.27-.332.683-.277 1.11.09.722.558 1.155.894 1.394.34.242.664.355.664.355h.008l4.883 1.645c.219.703 1.488 4.875 1.793 5.836.18.574.355.933.574 1.207.106.14.23.257.379.351.077.045.16.08.246.106l-.05-.012c.015.004.027.016.038.02.04.011.067.015.118.023.773.234 1.394-.246 1.394-.246l.035-.028 2.883-2.625 4.832 3.707.11.047c1.007.442 2.027.196 2.566-.238.543-.437.754-.996.754-.996l.035-.09 3.734-19.129c.106-.472.133-.914.016-1.343-.12-.434-.4-.808-.781-1.047a1.872 1.872 0 00-1.067-.27zm-.101 2.05c-.004.063.008.056-.02.177v.011l-3.699 18.93c-.016.027-.043.086-.117.145-.078.062-.14.101-.465-.028l-5.91-4.531-3.57 3.254.75-4.79 9.656-9c.398-.37.265-.448.265-.448.028-.454-.601-.133-.601-.133L8.082 14.176l-.004-.02-5.836-1.965v-.004l-.015-.003a.27.27 0 00.03-.012l.032-.016.031-.011s5.211-2.196 10.508-4.426c2.652-1.117 5.324-2.242 7.379-3.11a807.312 807.312 0 013.66-1.53c.082-.032.043-.032.102-.032v-.001z" fill="#70c4f1"/></svg><svg fill="none" viewBox="0 0 25 26" id="Viber" xmlns="http://www.w3.org/2000/svg"><path d="M12.7 0c-1.9 0-6.6.2-9.1 2.6C1.8 4.3 1.1 6.9 1 10c-.2 4.9.9 8 2.7 9.6.4.3 1.4 1.1 3.3 1.7v2.5s0 1 .6 1.2c.1 0 .2.1.3.1.6 0 1.1-.7 1.8-1.4.6-.7 1.1-1.2 1.4-1.7h2.2c1.9 0 6.6-.2 9.1-2.6 1.8-1.8 2.5-4.4 2.5-7.7.1-.5.1-1.1.1-1.7-.1-3.7-1.2-6.2-2.7-7.6-.6-.5-3.2-2.4-8.8-2.4h-.8zm-.2 1.9h.9c5.3 0 7.3 1.7 7.5 1.9 1.2 1 1.9 3.2 2 6.1v.4c.1.6.1 1.1.1 1.4-.1 3-.7 5-1.9 6.3-2.1 1.9-6.5 2-7.7 2h-1.9l-1.6 1.8-1 1.1-.2.3c-.2.2-.5.6-.7.7v-4.5c-2-.5-2.8-1.2-3-1.4-1.4-1.2-2.2-4.1-2-8V9c.2-2.4.8-4 1.8-5.1 2.1-1.9 6.5-2 7.7-2zm-.1 2.2c-.5 0-.5.7 0 .7 3.7 0 6.9 2.5 6.9 7.2 0 .5.7.5.7 0 0-5.1-3.4-8-7.6-7.9zm-3.963.925a.875.875 0 00-.636.174c-1 .5-2.001 1.502-1.701 2.602 0 0 .2.899 1.3 2.799.6.9 1.1 1.7 1.6 2.3.5.7 1.3 1.5 2.1 2.1 1.6 1.3 4.1 2.6 5.2 2.9 1 .3 2.1-.7 2.6-1.7.2-.4.1-.9-.3-1.2-.6-.6-1.6-1.3-2.3-1.7-.5-.3-1.1-.1-1.3.2l-.5.6c-.2.3-.7.3-.7.3-3.3-.9-4.2-4.3-4.2-4.3s0-.4.3-.7l.6-.5c.3-.2.5-.8.2-1.3-.2-.3-.5-.9-.8-1.2C9.6 6 9 5.3 9 5.3a.962.962 0 00-.563-.275zM13.1 6.1c-.5-.1-.6.7-.1.7 2.8.2 4.4 2.1 4.3 4.5-.1.5.7.5.7 0 .1-2.8-1.7-5.1-4.9-5.2zm.3 1.9c-.5-.1-.5.7 0 .7 1.2 0 1.8.7 1.8 1.9.1.5.8.5.8 0C15.9 9 15 8 13.4 8z" fill="#E0DDDD"/></svg><svg fill="none" viewBox="0 0 25 26" id="ViberBlue" xmlns="http://www.w3.org/2000/svg"><path d="M12.7 0c-1.9 0-6.6.2-9.1 2.6C1.8 4.3 1.1 6.9 1 10c-.2 4.9.9 8 2.7 9.6.4.3 1.4 1.1 3.3 1.7v2.5s0 1 .6 1.2c.1 0 .2.1.3.1.6 0 1.1-.7 1.8-1.4.6-.7 1.1-1.2 1.4-1.7h2.2c1.9 0 6.6-.2 9.1-2.6 1.8-1.8 2.5-4.4 2.5-7.7.1-.5.1-1.1.1-1.7-.1-3.7-1.2-6.2-2.7-7.6-.6-.5-3.2-2.4-8.8-2.4h-.8zm-.2 1.9h.9c5.3 0 7.3 1.7 7.5 1.9 1.2 1 1.9 3.2 2 6.1v.4c.1.6.1 1.1.1 1.4-.1 3-.7 5-1.9 6.3-2.1 1.9-6.5 2-7.7 2h-1.9l-1.6 1.8-1 1.1-.2.3c-.2.2-.5.6-.7.7v-4.5c-2-.5-2.8-1.2-3-1.4-1.4-1.2-2.2-4.1-2-8V9c.2-2.4.8-4 1.8-5.1 2.1-1.9 6.5-2 7.7-2zm-.1 2.2c-.5 0-.5.7 0 .7 3.7 0 6.9 2.5 6.9 7.2 0 .5.7.5.7 0 0-5.1-3.4-8-7.6-7.9zm-3.963.925a.875.875 0 00-.636.174c-1 .5-2.001 1.502-1.701 2.602 0 0 .2.899 1.3 2.799.6.9 1.1 1.7 1.6 2.3.5.7 1.3 1.5 2.1 2.1 1.6 1.3 4.1 2.6 5.2 2.9 1 .3 2.1-.7 2.6-1.7.2-.4.1-.9-.3-1.2-.6-.6-1.6-1.3-2.3-1.7-.5-.3-1.1-.1-1.3.2l-.5.6c-.2.3-.7.3-.7.3-3.3-.9-4.2-4.3-4.2-4.3s0-.4.3-.7l.6-.5c.3-.2.5-.8.2-1.3-.2-.3-.5-.9-.8-1.2C9.6 6 9 5.3 9 5.3a.962.962 0 00-.563-.275zM13.1 6.1c-.5-.1-.6.7-.1.7 2.8.2 4.4 2.1 4.3 4.5-.1.5.7.5.7 0 .1-2.8-1.7-5.1-4.9-5.2zm.3 1.9c-.5-.1-.5.7 0 .7 1.2 0 1.8.7 1.8 1.9.1.5.8.5.8 0C15.9 9 15 8 13.4 8z" fill="#70c4f1"/></svg></svg>